<?xml version="1.0" encoding="UTF-8" standalone="no"?>
<svg
   width="88"
   height="31"
   version="1.1"
   id="svg15"
   xmlns="http://www.w3.org/2000/svg"
   xmlns:svg="http://www.w3.org/2000/svg">
  <defs
     id="defs6">
    <linearGradient
       id="bg-gradient"
       x1="0"
       x2="0"
       y1="0"
       y2="1">
      <stop
         offset="0%"
         stop-color="#1f008e"
         id="stop1" />
      <stop
         offset="100%"
         stop-color="#4220bd"
         id="stop2" />
    </linearGradient>
    <pattern
       id="bg-checkerboard"
       patternUnits="userSpaceOnUse"
       width="20"
       height="20">
      <g
         opacity="0.5"
         id="g6">
        <rect
           x="0"
           y="0"
           width="10"
           height="10"
           fill="black"
           id="rect2" />
        <rect
           x="10"
           y="10"
           width="10"
           height="10"
           fill="black"
           id="rect3" />
        <rect
           x="20"
           y="20"
           width="10"
           height="10"
           fill="black"
           id="rect4" />
        <rect
           x="20"
           y="0"
           width="10"
           height="10"
           fill="black"
           id="rect5" />
        <rect
           x="0"
           y="20"
           width="10"
           height="10"
           fill="black"
           id="rect6" />
        <animateTransform
           attributeName="transform"
           type="translate"
           from="0 0"
           to="-10 -10"
           begin="0s"
           dur="2s"
           repeatCount="indefinite" />
      </g>
    </pattern>
  </defs>
  <style
     id="style6">
        text {
            font-family: &quot;Arial&quot;, &quot;FreeSans&quot;, sans-serif;
            font-size: 12px;
            stroke-width: 2px;
            paint-order: stroke;
            font-style: italic;
            font-weight: bold;
            fill: white; 
            stroke: black;
            stroke-width: 2;
            paint-order: stroke;
        }
        text.left {
            font-size: 12px;
            dominant-baseline: baseline;
            text-anchor: start;
        }
        text.right {
            dominant-baseline: baseline;
            text-anchor: end;
        }
    </style>
  <!-- Background -->
  <rect
     width="88"
     height="31"
     fill="url(#bg-gradient)"
     id="rect7" />
  <g
     transform="rotate(10 0 100) skewX(-20) scale(1 0.5)"
     id="g8">
    <rect
       x="-10"
       y="-30"
       width="120"
       height="100"
       fill="url(#bg-checkerboard)"
       id="rect8" />
  </g>
  <!-- Left text -->
  <path
     d="m 12.228516,16 h -1.59375 l 0.140625,-0.673828 q -0.457032,0.439453 -0.9023441,0.632812 -0.4394531,0.1875 -0.9960938,0.1875 -0.9667969,0 -1.5703125,-0.65625 -0.5976562,-0.662109 -0.5976562,-1.951171 0,-1.494141 0.84375,-2.701172 0.84375,-1.2070316 2.2324219,-1.2070316 1.2539067,0 1.8808597,0.9960936 l 0.673828,-3.2167968 h 1.68164 z M 8.34375,13.46875 q 0,0.667969 0.3339844,1.042969 0.3398437,0.375 0.8320312,0.375 0.4570313,0 0.8496094,-0.310547 0.398438,-0.316406 0.632813,-0.960938 0.240234,-0.644531 0.240234,-1.236328 0,-0.673828 -0.363281,-1.089843 -0.363282,-0.416016 -0.837891,-0.416016 -0.7382812,0 -1.2128906,0.820312 Q 8.34375,12.513672 8.34375,13.46875 Z m 6.755859,-3.6914062 h 1.681641 l -0.767578,3.6855472 q -0.140625,0.662109 -0.140625,0.826172 0,0.269531 0.199219,0.46289 0.199218,0.19336 0.509765,0.19336 0.222656,0 0.439453,-0.08203 0.216797,-0.08789 0.445313,-0.257812 0.228515,-0.175781 0.410156,-0.398438 0.181641,-0.222656 0.339844,-0.585937 0.111328,-0.269531 0.240234,-0.878906 l 0.621094,-2.9648442 h 1.681641 L 19.458984,16 h -1.570312 l 0.175781,-0.84375 q -1.03125,0.990234 -2.24414,0.990234 -0.767579,0 -1.207032,-0.439453 -0.439453,-0.439453 -0.439453,-1.177734 0,-0.322266 0.199219,-1.283203 z M 26.888672,16 h -1.59375 l 0.140625,-0.673828 q -0.457031,0.439453 -0.902344,0.632812 -0.439453,0.1875 -0.996094,0.1875 -0.966797,0 -1.570312,-0.65625 -0.597656,-0.662109 -0.597656,-1.951171 0,-1.494141 0.84375,-2.701172 0.84375,-1.2070316 2.232421,-1.2070316 1.253907,0 1.88086,0.9960936 L 27,7.4101562 h 1.681641 z m -3.884766,-2.53125 q 0,0.667969 0.333985,1.042969 0.339843,0.375 0.832031,0.375 0.457031,0 0.849609,-0.310547 0.398438,-0.316406 0.632813,-0.960938 0.240234,-0.644531 0.240234,-1.236328 0,-0.673828 -0.363281,-1.089843 -0.363281,-0.416016 -0.837891,-0.416016 -0.738281,0 -1.21289,0.820312 -0.47461,0.820313 -0.47461,1.775391 z m 6.75586,-3.6914062 h 1.68164 l -0.767578,3.6855472 q -0.140625,0.662109 -0.140625,0.826172 0,0.269531 0.199219,0.46289 0.199219,0.19336 0.509765,0.19336 0.222657,0 0.439454,-0.08203 0.216796,-0.08789 0.445312,-0.257812 0.228516,-0.175781 0.410156,-0.398438 0.181641,-0.222656 0.339844,-0.585937 0.111328,-0.269531 0.240234,-0.878906 l 0.621094,-2.9648442 h 1.681641 L 34.119141,16 h -1.570313 l 0.175781,-0.84375 q -1.03125,0.990234 -2.24414,0.990234 -0.767578,0 -1.207032,-0.439453 -0.439453,-0.439453 -0.439453,-1.177734 0,-0.322266 0.199219,-1.283203 z m 10.259765,3.8789062 1.634766,0.263672 Q 41.25,15.009766 40.458984,15.578125 39.667969,16.146484 38.625,16.146484 q -1.189453,0 -1.886719,-0.708984 -0.697265,-0.708984 -0.697265,-1.951172 0,-1.013672 0.421875,-1.916015 0.421875,-0.902344 1.271484,-1.417969 0.849609,-0.5214846 1.863281,-0.5214846 1.101563,0 1.757813,0.5742186 0.65625,0.574219 0.738281,1.511719 l -1.599609,0.169922 q -0.05859,-0.521485 -0.322266,-0.767578 -0.257813,-0.246094 -0.679688,-0.246094 -0.486328,0 -0.908203,0.363281 -0.421875,0.363281 -0.65039,1.089844 -0.222657,0.720703 -0.222657,1.353516 0,0.550781 0.269532,0.849609 0.269531,0.298828 0.673828,0.298828 0.404297,0 0.779297,-0.292969 0.375,-0.292968 0.585937,-0.878906 z m 4.828125,-2.115234 -1.640625,-0.140625 q 0.28125,-0.832032 0.978516,-1.300782 0.703125,-0.4687496 1.857422,-0.4687496 1.201172,0 1.77539,0.4863286 0.574219,0.480468 0.574219,1.177734 0,0.28125 -0.05273,0.597656 -0.04687,0.316406 -0.345703,1.664063 -0.246094,1.113281 -0.246094,1.558593 0,0.398438 0.140625,0.884766 h -1.634766 q -0.09961,-0.339844 -0.123047,-0.703125 -0.36914,0.410156 -0.849609,0.632813 -0.480469,0.216796 -0.966797,0.216796 -0.773437,0 -1.277344,-0.503906 -0.503906,-0.509765 -0.503906,-1.30664 0,-0.890625 0.550781,-1.423829 0.556641,-0.533203 1.980469,-0.644531 1.201172,-0.09961 1.605469,-0.240234 0.105469,-0.351563 0.105469,-0.5625 0,-0.269531 -0.216797,-0.451172 -0.216797,-0.181641 -0.644532,-0.181641 -0.451171,0 -0.714843,0.1875 -0.257813,0.181641 -0.351563,0.521485 z m 1.59961,1.558593 q -0.152344,0.04102 -0.404297,0.07617 -1.265625,0.152344 -1.652344,0.445313 -0.275391,0.210937 -0.275391,0.568359 0,0.292969 0.210938,0.498047 0.210937,0.199219 0.55664,0.199219 0.38086,0 0.714844,-0.181641 0.339844,-0.1875 0.503906,-0.474609 0.169922,-0.292969 0.298829,-0.908203 z m 3.123046,-2.074218 0.257813,-1.2480472 h 0.820312 L 50.853516,8.78125 52.78125,7.6210937 52.330078,9.7773438 h 1.025391 l -0.257813,1.2480472 h -1.03125 l -0.544922,2.607422 Q 51.375,14.341797 51.375,14.441406 q 0,0.19336 0.123047,0.304688 0.123047,0.105469 0.445312,0.105469 0.111328,0 0.556641,-0.04102 l -0.263672,1.248047 q -0.433594,0.08789 -0.890625,0.08789 -0.890625,0 -1.294922,-0.339843 -0.404297,-0.345703 -0.404297,-0.955078 0,-0.28711 0.216797,-1.324219 l 0.521485,-2.501953 z m 4.910157,-0.5625 0.0293,-1.5996097 0.310546,-1.4531251 h 1.792969 l -0.310547,1.4531251 -0.609375,1.5996097 z m 1.300781,3.796875 1.628906,-0.257813 q 0.216797,0.515625 0.539063,0.732422 0.322265,0.210938 0.878906,0.210938 0.574219,0 0.919922,-0.257813 0.240234,-0.175781 0.240234,-0.427734 0,-0.169922 -0.123047,-0.304688 -0.128906,-0.128906 -0.697265,-0.316406 -1.523438,-0.503906 -1.886719,-0.796875 -0.568359,-0.457031 -0.568359,-1.195313 0,-0.738281 0.550781,-1.271484 0.767578,-0.7441406 2.279297,-0.7441406 1.201172,0 1.816406,0.4394536 0.615234,0.439453 0.779297,1.189453 l -1.552735,0.269531 q -0.123046,-0.339844 -0.398437,-0.509766 -0.375,-0.228515 -0.902344,-0.228515 -0.527344,0 -0.761719,0.175781 -0.228515,0.175781 -0.228515,0.404297 0,0.234375 0.234375,0.386719 0.146484,0.09375 0.943359,0.328125 1.230469,0.357421 1.646485,0.703125 0.585937,0.486328 0.585937,1.171875 0,0.884765 -0.744141,1.535156 -0.74414,0.65039 -2.097656,0.65039 -1.347656,0 -2.085937,-0.492187 -0.732422,-0.498047 -0.996094,-1.394531 z"
     id="text8"
     class="left"
     style="font-style:italic;font-weight:bold;font-size:12px;font-family:Arial, FreeSans, sans-serif;fill:#ffffff;stroke:#000000;stroke-width:2;paint-order:stroke"
     aria-label="duducat's ">
        <animateTransform id="main"
            attributeName="transform" type="translate" values="0 100;0 0;0 -100"
            begin="0.01s; main.end" dur="6s"
            calcMode="spline" keySplines="0 1 0 1;1 0 1 0" />
    </path>
  <!-- Right text -->
  <path
     d="M 40.972656,25 H 39.390625 L 39.085937,21.039062 37.1875,25 h -1.558594 l -0.779297,-6.222656 h 1.494141 l 0.433594,4.171875 1.939453,-4.171875 h 1.529297 l 0.210937,4.171875 1.927735,-4.171875 h 1.6875 z m 8.888672,-2.589844 h -4.21875 q -0.0059,0.09961 -0.0059,0.152344 0,0.621094 0.351562,1.001953 0.357422,0.380859 0.867188,0.380859 0.83789,0 1.30664,-0.867187 l 1.50586,0.251953 q -0.439453,0.908203 -1.177735,1.365234 -0.732422,0.451172 -1.646484,0.451172 -1.253906,0 -2.039063,-0.791015 -0.785156,-0.796875 -0.785156,-2.103516 0,-1.277344 0.708985,-2.273437 0.966796,-1.347657 2.759765,-1.347657 1.142578,0 1.816406,0.708985 0.673829,0.703125 0.673829,1.974609 0,0.609375 -0.117188,1.095703 z m -1.417969,-1.02539 q 0.0059,-0.111329 0.0059,-0.169922 0,-0.691407 -0.310547,-1.03711 -0.310547,-0.345703 -0.832031,-0.345703 -0.521485,0 -0.9375,0.392578 -0.410157,0.392578 -0.556641,1.160157 z M 50.429687,25 52.222656,16.410156 h 1.6875 l -0.603515,2.871094 q 0.46289,-0.351563 0.861328,-0.498047 0.404297,-0.152344 0.878906,-0.152344 0.984375,0 1.576172,0.66211 0.591797,0.65625 0.591797,1.916015 0,0.84961 -0.28125,1.652344 -0.275391,0.796875 -0.744141,1.300781 -0.462891,0.498047 -0.978516,0.744141 -0.509765,0.240234 -1.072265,0.240234 -1.335938,0 -1.962891,-1.171875 L 51.958984,25 Z m 2.267579,-2.537109 q 0,0.626953 0.351562,1.019531 0.357422,0.392578 0.837891,0.392578 0.421875,0 0.802734,-0.304688 0.386719,-0.304687 0.638672,-0.972656 0.257812,-0.667969 0.257812,-1.347656 0,-0.662109 -0.345703,-1.037109 -0.339843,-0.38086 -0.826172,-0.38086 -0.632812,0 -1.089843,0.585938 -0.626953,0.802734 -0.626953,2.044922 z m 4.892578,0.796875 1.628906,-0.257813 q 0.216797,0.515625 0.539062,0.732422 0.322266,0.210937 0.878907,0.210937 0.574218,0 0.919922,-0.257812 0.240234,-0.175781 0.240234,-0.427734 0,-0.169922 -0.123047,-0.304688 -0.128906,-0.128906 -0.697266,-0.316406 -1.523437,-0.503906 -1.886718,-0.796875 -0.56836,-0.457031 -0.56836,-1.195313 0,-0.738281 0.550782,-1.271484 0.767578,-0.744141 2.279296,-0.744141 1.201172,0 1.816407,0.439453 0.615234,0.439454 0.779297,1.189454 l -1.552735,0.269531 q -0.123047,-0.339844 -0.398437,-0.509766 -0.375,-0.228515 -0.902344,-0.228515 -0.527344,0 -0.761719,0.175781 -0.228515,0.175781 -0.228515,0.404297 0,0.234375 0.234375,0.386718 0.146484,0.09375 0.943359,0.328125 1.230469,0.357422 1.646484,0.703125 0.585938,0.486329 0.585938,1.171875 0,0.884766 -0.744141,1.535157 -0.74414,0.65039 -2.097656,0.65039 -1.347656,0 -2.085938,-0.492187 -0.732421,-0.498047 -0.996093,-1.394531 z m 8.683593,-6.84961 h 1.681641 l -0.316406,1.523438 h -1.681641 z m -0.492187,2.367188 h 1.681641 L 66.162109,25 h -1.68164 z m 2.455078,1.248047 0.257813,-1.248047 h 0.820312 l 0.205078,-0.996094 1.927735,-1.160156 -0.451172,2.15625 h 1.02539 l -0.257812,1.248047 h -1.03125 L 70.1875,22.632812 q -0.146484,0.708985 -0.146484,0.808594 0,0.19336 0.123046,0.304688 0.123047,0.105468 0.445313,0.105468 0.111328,0 0.556641,-0.04102 l -0.263672,1.248047 q -0.433594,0.08789 -0.890625,0.08789 -0.890625,0 -1.294922,-0.339843 -0.404297,-0.345704 -0.404297,-0.955079 0,-0.287109 0.216797,-1.324218 l 0.521484,-2.501953 z m 9.632813,2.384765 h -4.21875 q -0.0059,0.09961 -0.0059,0.152344 0,0.621094 0.351563,1.001953 0.357422,0.380859 0.867187,0.380859 0.837891,0 1.306641,-0.867187 l 1.505859,0.251953 q -0.439453,0.908203 -1.177734,1.365234 -0.732422,0.451172 -1.646485,0.451172 -1.253906,0 -2.039062,-0.791015 -0.785156,-0.796875 -0.785156,-2.103516 0,-1.277344 0.708984,-2.273437 0.966797,-1.347657 2.759766,-1.347657 1.142578,0 1.816406,0.708985 0.673828,0.703125 0.673828,1.974609 0,0.609375 -0.117187,1.095703 z m -1.417969,-1.02539 q 0.0059,-0.111329 0.0059,-0.169922 0,-0.691407 -0.310547,-1.03711 -0.310547,-0.345703 -0.832031,-0.345703 -0.521484,0 -0.9375,0.392578 -0.410156,0.392578 -0.556641,1.160157 z m 4.001953,1.429687 h -0.925781 l 0.527343,-4.382812 0.421875,-2.021485 h 1.763672 l -0.451172,2.173828 z m -1.371094,0.5625 h 1.664063 L 80.40625,25 h -1.664063 z"
     id="text9"
     class="right"
     style="font-style:italic;font-weight:bold;font-size:12px;font-family:Arial, FreeSans, sans-serif;text-anchor:end;fill:#ffffff;stroke:#000000;stroke-width:2;paint-order:stroke"
     aria-label="website! ">
        <animateTransform
            attributeName="transform" type="translate" values="0 100;0 0;0 -100"
            begin="main.begin" dur="2.25s"
            calcMode="spline" keySplines="0 1 0 1;1 0 1 0" />
        <animateTransform
            attributeName="transform" type="translate" values="0 100;0 100"
            begin="main.begin+2.25s" dur="3.75s" />
     </path>
  <path
     d="M 19.632812,-22 H 18.050781 L 17.746094,-25.960937 15.847656,-22 h -1.558593 l -0.779297,-6.222656 h 1.49414 l 0.433594,4.171875 1.939453,-4.171875 h 1.529297 l 0.210937,4.171875 1.927735,-4.171875 h 1.6875 z m 8.888672,-2.589844 h -4.21875 q -0.0059,0.09961 -0.0059,0.152344 0,0.621094 0.351562,1.001953 0.357422,0.38086 0.867188,0.38086 0.837891,0 1.306641,-0.867188 l 1.505859,0.251953 q -0.439453,0.908203 -1.177734,1.365235 -0.732422,0.451171 -1.646485,0.451171 -1.253906,0 -2.039062,-0.791015 -0.785157,-0.796875 -0.785157,-2.103516 0,-1.277344 0.708985,-2.273437 0.966797,-1.347657 2.759765,-1.347657 1.142579,0 1.816407,0.708985 0.673828,0.703125 0.673828,1.974609 0,0.609375 -0.117188,1.095703 z m -1.417968,-1.02539 q 0.0059,-0.111328 0.0059,-0.169922 0,-0.691406 -0.310547,-1.03711 -0.310547,-0.345703 -0.832031,-0.345703 -0.521485,0 -0.9375,0.392578 -0.410156,0.392579 -0.556641,1.160157 z M 29.089844,-22 l 1.792968,-8.589844 h 1.6875 l -0.603515,2.871094 q 0.46289,-0.351562 0.861328,-0.498047 0.404297,-0.152344 0.878906,-0.152344 0.984375,0 1.576172,0.66211 0.591797,0.65625 0.591797,1.916015 0,0.84961 -0.28125,1.652344 -0.275391,0.796875 -0.744141,1.300781 -0.46289,0.498047 -0.978515,0.744141 -0.509766,0.240234 -1.072266,0.240234 -1.335937,0 -1.962891,-1.171875 L 30.619141,-22 Z m 2.267578,-2.537109 q 0,0.626953 0.351562,1.019531 0.357422,0.392578 0.837891,0.392578 0.421875,0 0.802734,-0.304687 0.386719,-0.304688 0.638672,-0.972657 0.257813,-0.667968 0.257813,-1.347656 0,-0.662109 -0.345703,-1.037109 -0.339844,-0.38086 -0.826172,-0.38086 -0.632813,0 -1.089844,0.585938 -0.626953,0.802734 -0.626953,2.044922 z m 5.43164,-1.371094 h 3.263672 l -0.339843,1.623047 h -3.263672 z m 3.585938,4.236328 1.775391,0.257813 q 0,0.269531 0.08789,0.404296 0.08789,0.140625 0.28125,0.234375 0.199219,0.09961 0.539063,0.09961 0.533203,0 0.855468,-0.210938 0.240235,-0.164062 0.392579,-0.527343 0.09375,-0.228516 0.240234,-0.996094 l 0.05859,-0.292969 q -0.873047,0.726563 -1.804688,0.726563 -0.914062,0 -1.5,-0.644532 -0.585937,-0.644531 -0.585937,-1.886718 0,-1.095704 0.398437,-2.009766 0.398438,-0.914063 1.119141,-1.382813 0.720703,-0.46875 1.470703,-0.46875 0.621094,0 1.136719,0.328125 0.515625,0.328125 0.802734,0.919922 l 0.234375,-1.101562 h 1.576172 L 46.375,-23.037109 q -0.263672,1.248047 -0.445313,1.78125 -0.18164,0.533203 -0.416015,0.849609 -0.234375,0.316406 -0.591797,0.527344 -0.357422,0.216797 -0.84375,0.310547 -0.486328,0.09375 -1.054688,0.09375 -1.318359,0 -1.992187,-0.451172 -0.673828,-0.451172 -0.673828,-1.5 0,-0.111328 0.01758,-0.246094 z m 1.980469,-3.005859 q 0,0.708984 0.316406,1.083984 0.322266,0.369141 0.802734,0.369141 0.439453,0 0.84961,-0.333985 0.416015,-0.333984 0.632812,-0.949218 0.222656,-0.615235 0.222656,-1.189454 0,-0.662109 -0.357421,-1.066406 -0.357422,-0.404297 -0.826172,-0.404297 -0.451172,0 -0.832032,0.357422 -0.375,0.357422 -0.621093,1.101563 -0.1875,0.574218 -0.1875,1.03125 z m 7.810547,-1.78125 -1.640625,-0.140625 q 0.28125,-0.832032 0.978515,-1.300782 0.703125,-0.46875 1.857422,-0.46875 1.201172,0 1.775391,0.486329 0.574218,0.480468 0.574218,1.177734 0,0.28125 -0.05273,0.597656 -0.04687,0.316406 -0.345703,1.664063 -0.246094,1.113281 -0.246094,1.558593 0,0.398438 0.140625,0.884766 h -1.634765 q -0.09961,-0.339844 -0.123047,-0.703125 -0.369141,0.410156 -0.84961,0.632813 -0.480468,0.216796 -0.966797,0.216796 -0.773437,0 -1.277343,-0.503906 -0.503907,-0.509765 -0.503907,-1.30664 0,-0.890625 0.550782,-1.423829 0.55664,-0.533203 1.980468,-0.644531 1.201172,-0.09961 1.605469,-0.240234 0.105469,-0.351563 0.105469,-0.5625 0,-0.269531 -0.216797,-0.451172 -0.216797,-0.181641 -0.644531,-0.181641 -0.451172,0 -0.714844,0.1875 -0.257812,0.181641 -0.351562,0.521485 z m 1.599609,1.558593 q -0.152344,0.04102 -0.404297,0.07617 -1.265625,0.152344 -1.652344,0.445313 -0.27539,0.210937 -0.27539,0.568359 0,0.292969 0.210937,0.498047 0.210938,0.199219 0.556641,0.199219 0.380859,0 0.714844,-0.181641 0.339843,-0.1875 0.503906,-0.474609 0.169922,-0.292969 0.298828,-0.908203 z m 3.949219,-3.322265 h 1.582031 l -0.158203,0.755859 q 0.925781,-0.902344 1.945312,-0.902344 0.703125,0 1.083985,0.292969 0.380859,0.292969 0.486328,0.808594 0.322265,-0.46875 0.925781,-0.785156 0.603516,-0.316407 1.253906,-0.316407 0.744141,0 1.160157,0.398438 0.416015,0.398437 0.416015,1.054687 0,0.322266 -0.164062,1.113282 L 63.449219,-22 h -1.681641 l 0.796875,-3.802734 q 0.146484,-0.714844 0.146484,-0.808594 0,-0.257813 -0.158203,-0.404297 -0.152343,-0.152344 -0.46289,-0.152344 -0.626953,0 -1.119141,0.66211 -0.357422,0.474609 -0.609375,1.68164 L 59.769531,-22 h -1.68164 l 0.785156,-3.761719 q 0.134765,-0.65039 0.134765,-0.84375 0,-0.246093 -0.169921,-0.404297 -0.164063,-0.158203 -0.457032,-0.158203 -0.27539,0 -0.568359,0.164063 -0.292969,0.164062 -0.515625,0.451172 -0.216797,0.287109 -0.375,0.738281 -0.07031,0.210937 -0.228516,0.955078 L 56.095703,-22 h -1.681641 z m 15.480468,3.632812 h -4.21875 q -0.0059,0.09961 -0.0059,0.152344 0,0.621094 0.351563,1.001953 0.357421,0.38086 0.867187,0.38086 0.837891,0 1.306641,-0.867188 l 1.505859,0.251953 q -0.439453,0.908203 -1.177734,1.365235 -0.732422,0.451171 -1.646485,0.451171 -1.253906,0 -2.039062,-0.791015 -0.785156,-0.796875 -0.785156,-2.103516 0,-1.277344 0.708984,-2.273437 0.966797,-1.347657 2.759766,-1.347657 1.142578,0 1.816406,0.708985 0.673828,0.703125 0.673828,1.974609 0,0.609375 -0.117188,1.095703 z m -1.417968,-1.02539 q 0.0059,-0.111328 0.0059,-0.169922 0,-0.691406 -0.310547,-1.03711 -0.310547,-0.345703 -0.832031,-0.345703 -0.521484,0 -0.9375,0.392578 -0.410156,0.392579 -0.556641,1.160157 z m 1.816406,1.875 1.628906,-0.257813 q 0.216797,0.515625 0.539063,0.732422 0.322265,0.210938 0.878906,0.210938 0.574219,0 0.919922,-0.257813 0.240234,-0.175781 0.240234,-0.427734 0,-0.169922 -0.123047,-0.304688 -0.128906,-0.128906 -0.697265,-0.316406 -1.523438,-0.503906 -1.886719,-0.796875 -0.568359,-0.457031 -0.568359,-1.195313 0,-0.738281 0.550781,-1.271484 0.767578,-0.744141 2.279297,-0.744141 1.201172,0 1.816406,0.439454 0.615234,0.439453 0.779297,1.189453 l -1.552735,0.269531 Q 76.275391,-26.810547 76,-26.980469 q -0.375,-0.228515 -0.902344,-0.228515 -0.527344,0 -0.761719,0.175781 -0.228515,0.175781 -0.228515,0.404297 0,0.234375 0.234375,0.386719 0.146484,0.09375 0.943359,0.328125 1.230469,0.357421 1.646485,0.703125 0.585937,0.486328 0.585937,1.171875 0,0.884765 -0.744141,1.535156 -0.74414,0.65039 -2.097656,0.65039 -1.347656,0 -2.085937,-0.492187 -0.732422,-0.498047 -0.996094,-1.394531 z m 8.859375,-0.445313 h -0.925781 l 0.527343,-4.382812 0.421875,-2.021485 h 1.763672 l -0.451172,2.173828 z m -1.371094,0.5625 h 1.664063 L 80.40625,-22 h -1.664063 z"
     id="text10"
     class="right"
     style="font-style:italic;font-weight:bold;font-size:12px;font-family:Arial, FreeSans, sans-serif;text-anchor:end;fill:#ffffff;stroke:#000000;stroke-width:2;paint-order:stroke"
     aria-label="web-games! ">
        <animateTransform
            attributeName="transform" type="translate" values="0 147;0 47;0 -53"
            begin="main.begin+2s" dur="1s"
            calcMode="spline" keySplines="0 1 0 1;1 0 1 0" />
     </path>
  <path
     d="M 32.980469,-22 H 31.398437 L 31.09375,-25.960937 29.195312,-22 h -1.558593 l -0.779297,-6.222656 h 1.49414 l 0.433594,4.171875 1.939453,-4.171875 h 1.529297 l 0.210938,4.171875 1.927734,-4.171875 h 1.6875 z m 8.888672,-2.589844 h -4.21875 q -0.0059,0.09961 -0.0059,0.152344 0,0.621094 0.351563,1.001953 0.357422,0.38086 0.867187,0.38086 0.837891,0 1.306641,-0.867188 l 1.505859,0.251953 q -0.439453,0.908203 -1.177734,1.365235 -0.732422,0.451171 -1.646485,0.451171 -1.253906,0 -2.039062,-0.791015 -0.785156,-0.796875 -0.785156,-2.103516 0,-1.277344 0.708984,-2.273437 0.966797,-1.347657 2.759766,-1.347657 1.142578,0 1.816406,0.708985 0.673828,0.703125 0.673828,1.974609 0,0.609375 -0.117187,1.095703 z m -1.417969,-1.02539 q 0.0059,-0.111328 0.0059,-0.169922 0,-0.691406 -0.310547,-1.03711 -0.310547,-0.345703 -0.832031,-0.345703 -0.521484,0 -0.9375,0.392578 -0.410156,0.392579 -0.556641,1.160157 z M 42.4375,-22 l 1.792969,-8.589844 h 1.6875 l -0.603516,2.871094 q 0.462891,-0.351562 0.861328,-0.498047 0.404297,-0.152344 0.878906,-0.152344 0.984375,0 1.576172,0.66211 0.591797,0.65625 0.591797,1.916015 0,0.84961 -0.28125,1.652344 -0.27539,0.796875 -0.74414,1.300781 -0.462891,0.498047 -0.978516,0.744141 -0.509766,0.240234 -1.072266,0.240234 -1.335937,0 -1.96289,-1.171875 L 43.966797,-22 Z m 2.267578,-2.537109 q 0,0.626953 0.351563,1.019531 0.357421,0.392578 0.83789,0.392578 0.421875,0 0.802735,-0.304687 0.386718,-0.304688 0.638671,-0.972657 0.257813,-0.667968 0.257813,-1.347656 0,-0.662109 -0.345703,-1.037109 -0.339844,-0.38086 -0.826172,-0.38086 -0.632813,0 -1.089844,0.585938 -0.626953,0.802734 -0.626953,2.044922 z m 5.431641,-1.371094 h 3.263672 l -0.339844,1.623047 h -3.263672 z m 4.095703,-1.066406 0.257812,-1.248047 h 0.820313 l 0.205078,-0.996094 1.927734,-1.160156 -0.451172,2.15625 h 1.025391 l -0.257812,1.248047 h -1.03125 l -0.544922,2.607422 q -0.146485,0.708984 -0.146485,0.808593 0,0.19336 0.123047,0.304688 0.123047,0.105469 0.445313,0.105469 0.111328,0 0.55664,-0.04102 l -0.263672,1.248047 q -0.433593,0.08789 -0.890625,0.08789 -0.890625,0 -1.294921,-0.339843 -0.404297,-0.345703 -0.404297,-0.955078 0,-0.28711 0.216797,-1.324219 l 0.521484,-2.501953 z m 3.820312,2.390625 q 0,-1.728516 0.972657,-2.753907 0.978515,-1.03125 2.566406,-1.03125 1.376953,0 2.15039,0.761719 0.773438,0.75586 0.773438,2.039063 0,1.511718 -0.966797,2.613281 -0.966797,1.101562 -2.589844,1.101562 -0.878906,0 -1.558593,-0.351562 -0.679688,-0.351563 -1.013672,-0.996094 -0.333985,-0.644531 -0.333985,-1.382812 z m 4.792969,-1.201172 q 0,-0.597656 -0.351562,-0.955078 -0.345704,-0.363282 -0.896485,-0.363282 -0.544922,0 -0.966797,0.339844 -0.421875,0.333985 -0.65625,0.978516 -0.234375,0.638672 -0.234375,1.177734 0,0.667969 0.363282,1.060547 0.363281,0.392578 0.914062,0.392578 0.691406,0 1.160156,-0.591797 0.667969,-0.83789 0.667969,-2.039062 z m 2.8125,-2.4375 h 1.675781 l 0.421875,3.099609 q 0.158203,1.195313 0.175782,1.675781 0.328125,-0.955078 0.902343,-2.015625 l 1.488282,-2.759765 h 1.78125 l -3.84375,6.832031 q -0.47461,0.849609 -0.75,1.189453 -0.269532,0.339844 -0.65625,0.533203 -0.38086,0.19336 -0.919922,0.19336 -0.533203,0 -1.201172,-0.1875 l 0.146484,-1.253907 q 0.304688,0.08789 0.591797,0.08789 0.773438,0 1.271484,-1.171875 z m 5.935547,4.482422 1.628906,-0.257813 q 0.216797,0.515625 0.539063,0.732422 0.322265,0.210938 0.878906,0.210938 0.574219,0 0.919922,-0.257813 0.240234,-0.175781 0.240234,-0.427734 0,-0.169922 -0.123047,-0.304688 -0.128906,-0.128906 -0.697265,-0.316406 -1.523438,-0.503906 -1.886719,-0.796875 -0.568359,-0.457031 -0.568359,-1.195313 0,-0.738281 0.550781,-1.271484 0.767578,-0.744141 2.279297,-0.744141 1.201172,0 1.816406,0.439454 0.615234,0.439453 0.779297,1.189453 l -1.552735,0.269531 Q 76.275391,-26.810547 76,-26.980469 q -0.375,-0.228515 -0.902344,-0.228515 -0.527344,0 -0.761719,0.175781 -0.228515,0.175781 -0.228515,0.404297 0,0.234375 0.234375,0.386719 0.146484,0.09375 0.943359,0.328125 1.230469,0.357421 1.646485,0.703125 0.585937,0.486328 0.585937,1.171875 0,0.884765 -0.744141,1.535156 -0.74414,0.65039 -2.097656,0.65039 -1.347656,0 -2.085937,-0.492187 -0.732422,-0.498047 -0.996094,-1.394531 z m 8.859375,-0.445313 h -0.925781 l 0.527343,-4.382812 0.421875,-2.021485 h 1.763672 l -0.451172,2.173828 z m -1.371094,0.5625 h 1.664063 L 80.40625,-22 h -1.664063 z"
     id="text11"
     class="right"
     style="font-style:italic;font-weight:bold;font-size:12px;font-family:Arial, FreeSans, sans-serif;text-anchor:end;fill:#ffffff;stroke:#000000;stroke-width:2;paint-order:stroke"
     aria-label="web-toys! ">
        <animateTransform
            attributeName="transform" type="translate" values="0 147;0 47;0 -53"
            begin="main.begin+2.75s" dur="1s"
            calcMode="spline" keySplines="0 1 0 1;1 0 1 0" />
     </path>
  <path
     d="M 15.648438,-22 H 14.066406 L 13.761719,-25.960937 11.863281,-22 h -1.558593 l -0.7792974,-6.222656 h 1.4941404 l 0.433594,4.171875 1.939453,-4.171875 h 1.529297 l 0.210938,4.171875 1.927734,-4.171875 h 1.6875 z m 8.888671,-2.589844 h -4.21875 q -0.0059,0.09961 -0.0059,0.152344 0,0.621094 0.351562,1.001953 0.357422,0.38086 0.867188,0.38086 0.837891,0 1.306641,-0.867188 l 1.505859,0.251953 q -0.439453,0.908203 -1.177734,1.365235 -0.732422,0.451171 -1.646485,0.451171 -1.253906,0 -2.039062,-0.791015 -0.785157,-0.796875 -0.785157,-2.103516 0,-1.277344 0.708985,-2.273437 0.966797,-1.347657 2.759765,-1.347657 1.142579,0 1.816407,0.708985 0.673828,0.703125 0.673828,1.974609 0,0.609375 -0.117188,1.095703 z m -1.417968,-1.02539 q 0.0059,-0.111328 0.0059,-0.169922 0,-0.691406 -0.310547,-1.03711 -0.310547,-0.345703 -0.832031,-0.345703 -0.521485,0 -0.9375,0.392578 -0.410156,0.392579 -0.556641,1.160157 z M 25.105469,-22 l 1.792968,-8.589844 h 1.6875 l -0.603515,2.871094 q 0.46289,-0.351562 0.861328,-0.498047 0.404297,-0.152344 0.878906,-0.152344 0.984375,0 1.576172,0.66211 0.591797,0.65625 0.591797,1.916015 0,0.84961 -0.28125,1.652344 -0.275391,0.796875 -0.744141,1.300781 -0.46289,0.498047 -0.978515,0.744141 -0.509766,0.240234 -1.072266,0.240234 -1.335937,0 -1.962891,-1.171875 L 26.634766,-22 Z m 2.267578,-2.537109 q 0,0.626953 0.351562,1.019531 0.357422,0.392578 0.837891,0.392578 0.421875,0 0.802734,-0.304687 0.386719,-0.304688 0.638672,-0.972657 0.257813,-0.667968 0.257813,-1.347656 0,-0.662109 -0.345703,-1.037109 -0.339844,-0.38086 -0.826172,-0.38086 -0.632813,0 -1.089844,0.585938 -0.626953,0.802734 -0.626953,2.044922 z m 5.43164,-1.371094 h 3.263672 l -0.339843,1.623047 h -3.263672 z m 4.962891,-2.314453 h 1.681641 l -0.767578,3.685547 q -0.140625,0.662109 -0.140625,0.826172 0,0.269531 0.199218,0.46289 0.199219,0.19336 0.509766,0.19336 0.222656,0 0.439453,-0.08203 0.216797,-0.08789 0.445313,-0.257812 0.228515,-0.175781 0.410156,-0.398438 0.18164,-0.222656 0.339844,-0.585937 0.111328,-0.269531 0.240234,-0.878906 l 0.621094,-2.964844 h 1.68164 L 42.126953,-22 h -1.570312 l 0.175781,-0.84375 q -1.03125,0.990234 -2.244141,0.990234 -0.767578,0 -1.207031,-0.439453 -0.439453,-0.439453 -0.439453,-1.177734 0,-0.322266 0.199219,-1.283203 z m 6.462891,1.248047 0.257812,-1.248047 h 0.820313 l 0.205078,-0.996094 1.927734,-1.160156 -0.451172,2.15625 h 1.025391 l -0.257813,1.248047 h -1.03125 l -0.544921,2.607422 q -0.146485,0.708984 -0.146485,0.808593 0,0.19336 0.123047,0.304688 0.123047,0.105469 0.445313,0.105469 0.111328,0 0.55664,-0.04102 l -0.263672,1.248047 q -0.433593,0.08789 -0.890625,0.08789 -0.890625,0 -1.294922,-0.339843 -0.404296,-0.345703 -0.404296,-0.955078 0,-0.28711 0.216796,-1.324219 l 0.521485,-2.501953 z m 5.367187,-3.615235 h 1.681641 l -0.316406,1.523438 H 49.28125 Z m -0.492187,2.367188 h 1.68164 L 49.486328,-22 H 47.804687 Z M 51.126953,-22 l 1.798828,-8.589844 h 1.675781 L 52.808594,-22 Z m 5.138672,-8.589844 h 1.681641 l -0.316407,1.523438 h -1.68164 z m -0.492188,2.367188 h 1.681641 L 56.154297,-22 h -1.681641 z m 2.455079,1.248047 0.257812,-1.248047 h 0.820313 l 0.205078,-0.996094 1.927734,-1.160156 -0.451172,2.15625 h 1.025391 l -0.257813,1.248047 h -1.03125 l -0.544922,2.607422 q -0.146484,0.708984 -0.146484,0.808593 0,0.19336 0.123047,0.304688 0.123047,0.105469 0.445312,0.105469 0.111329,0 0.556641,-0.04102 l -0.263672,1.248047 q -0.433594,0.08789 -0.890625,0.08789 -0.890625,0 -1.294922,-0.339843 -0.404297,-0.345703 -0.404297,-0.955078 0,-0.28711 0.216797,-1.324219 l 0.521485,-2.501953 z m 5.367187,-3.615235 h 1.681641 l -0.316407,1.523438 h -1.68164 z m -0.492187,2.367188 h 1.68164 L 63.484375,-22 h -1.681641 z m 8.091796,3.632812 h -4.21875 q -0.0059,0.09961 -0.0059,0.152344 0,0.621094 0.351563,1.001953 0.357421,0.38086 0.867187,0.38086 0.837891,0 1.306641,-0.867188 l 1.505859,0.251953 q -0.439453,0.908203 -1.177734,1.365235 -0.732422,0.451171 -1.646485,0.451171 -1.253906,0 -2.039062,-0.791015 -0.785156,-0.796875 -0.785156,-2.103516 0,-1.277344 0.708984,-2.273437 0.966797,-1.347657 2.759766,-1.347657 1.142578,0 1.816406,0.708985 0.673828,0.703125 0.673828,1.974609 0,0.609375 -0.117188,1.095703 z m -1.417968,-1.02539 q 0.0059,-0.111328 0.0059,-0.169922 0,-0.691406 -0.310547,-1.03711 -0.310547,-0.345703 -0.832031,-0.345703 -0.521484,0 -0.9375,0.392578 -0.410156,0.392579 -0.556641,1.160157 z m 1.816406,1.875 1.628906,-0.257813 q 0.216797,0.515625 0.539063,0.732422 0.322265,0.210938 0.878906,0.210938 0.574219,0 0.919922,-0.257813 0.240234,-0.175781 0.240234,-0.427734 0,-0.169922 -0.123047,-0.304688 -0.128906,-0.128906 -0.697265,-0.316406 -1.523438,-0.503906 -1.886719,-0.796875 -0.568359,-0.457031 -0.568359,-1.195313 0,-0.738281 0.550781,-1.271484 0.767578,-0.744141 2.279297,-0.744141 1.201172,0 1.816406,0.439454 0.615234,0.439453 0.779297,1.189453 l -1.552735,0.269531 Q 76.275391,-26.810547 76,-26.980469 q -0.375,-0.228515 -0.902344,-0.228515 -0.527344,0 -0.761719,0.175781 -0.228515,0.175781 -0.228515,0.404297 0,0.234375 0.234375,0.386719 0.146484,0.09375 0.943359,0.328125 1.230469,0.357421 1.646485,0.703125 0.585937,0.486328 0.585937,1.171875 0,0.884765 -0.744141,1.535156 -0.74414,0.65039 -2.097656,0.65039 -1.347656,0 -2.085937,-0.492187 -0.732422,-0.498047 -0.996094,-1.394531 z m 8.859375,-0.445313 h -0.925781 l 0.527343,-4.382812 0.421875,-2.021485 h 1.763672 l -0.451172,2.173828 z m -1.371094,0.5625 h 1.664063 L 80.40625,-22 h -1.664063 z"
     id="text12"
     class="right"
     style="font-style:italic;font-weight:bold;font-size:12px;font-family:Arial, FreeSans, sans-serif;text-anchor:end;fill:#ffffff;stroke:#000000;stroke-width:2;paint-order:stroke"
     aria-label="web-utilities! ">
        <animateTransform
            attributeName="transform" type="translate" values="0 147;0 47;0 -53"
            begin="main.begin+3.5s" dur="1s"
            calcMode="spline" keySplines="0 1 0 1;1 0 1 0" />
     </path>
  <path
     d="m 9.578125,-30.589844 h 1.6875 l -0.316406,1.523438 H 9.2617188 Z m -0.4921875,2.367188 h 1.6875005 l -1.1074224,5.267578 q -0.46875,2.255859 -0.8027343,2.736328 -0.5039063,0.744141 -1.6171876,0.744141 -0.6914062,0 -1.265625,-0.1875 l 0.2636719,-1.388672 q 0.4042969,0.09961 0.6796875,0.09961 0.3398438,0 0.5449219,-0.263672 0.2050781,-0.263672 0.5390625,-1.851562 z m 1.8046875,4.482422 1.628906,-0.257813 q 0.216797,0.515625 0.539063,0.732422 0.322265,0.210938 0.878906,0.210938 0.574219,0 0.919922,-0.257813 0.240234,-0.175781 0.240234,-0.427734 0,-0.169922 -0.123047,-0.304688 -0.128906,-0.128906 -0.697265,-0.316406 -1.523438,-0.503906 -1.886719,-0.796875 -0.568359,-0.457031 -0.568359,-1.195313 0,-0.738281 0.550781,-1.271484 0.767578,-0.744141 2.279297,-0.744141 1.201172,0 1.816406,0.439454 0.615234,0.439453 0.779297,1.189453 l -1.552734,0.269531 q -0.123047,-0.339844 -0.398438,-0.509766 -0.375,-0.228515 -0.902344,-0.228515 -0.527343,0 -0.761718,0.175781 -0.228516,0.175781 -0.228516,0.404297 0,0.234375 0.234375,0.386719 0.146484,0.09375 0.943359,0.328125 1.230469,0.357421 1.646485,0.703125 0.585937,0.486328 0.585937,1.171875 0,0.884765 -0.744141,1.535156 -0.74414,0.65039 -2.097656,0.65039 -1.347656,0 -2.085937,-0.492187 -0.732422,-0.498047 -0.996094,-1.394531 z m 11.431641,-4.482422 h 1.570312 l -0.251953,1.207031 q 0.878906,-1.353516 1.904297,-1.353516 0.363281,0 0.779297,0.181641 l -0.644532,1.376953 q -0.228515,-0.08203 -0.486328,-0.08203 -0.433593,0 -0.884765,0.328125 -0.445313,0.328125 -0.697266,0.878906 -0.251953,0.544922 -0.498047,1.734375 L 22.703125,-22 h -1.681641 z m 9.521484,3.632812 H 27.625 q -0.0059,0.09961 -0.0059,0.152344 0,0.621094 0.351562,1.001953 0.357422,0.38086 0.867188,0.38086 0.83789,0 1.30664,-0.867188 l 1.50586,0.251953 q -0.439454,0.908203 -1.177735,1.365235 -0.732422,0.451171 -1.646484,0.451171 -1.253906,0 -2.039063,-0.791015 -0.785156,-0.796875 -0.785156,-2.103516 0,-1.277344 0.708984,-2.273437 0.966797,-1.347657 2.759766,-1.347657 1.142578,0 1.816406,0.708985 0.673828,0.703125 0.673828,1.974609 0,0.609375 -0.117187,1.095703 z m -1.417969,-1.02539 q 0.0059,-0.111328 0.0059,-0.169922 0,-0.691406 -0.310547,-1.03711 -0.310547,-0.345703 -0.832032,-0.345703 -0.521484,0 -0.9375,0.392578 -0.410156,0.392579 -0.55664,1.160157 z m 1.816406,1.875 1.628907,-0.257813 q 0.216797,0.515625 0.539062,0.732422 0.322266,0.210938 0.878906,0.210938 0.574219,0 0.919922,-0.257813 0.240235,-0.175781 0.240235,-0.427734 0,-0.169922 -0.123047,-0.304688 -0.128906,-0.128906 -0.697266,-0.316406 -1.523437,-0.503906 -1.886719,-0.796875 -0.568359,-0.457031 -0.568359,-1.195313 0,-0.738281 0.550781,-1.271484 0.767578,-0.744141 2.279297,-0.744141 1.201172,0 1.816406,0.439454 0.615235,0.439453 0.779297,1.189453 l -1.552734,0.269531 q -0.123047,-0.339844 -0.398438,-0.509766 -0.375,-0.228515 -0.902343,-0.228515 -0.527344,0 -0.761719,0.175781 -0.228516,0.175781 -0.228516,0.404297 0,0.234375 0.234375,0.386719 0.146485,0.09375 0.94336,0.328125 1.230468,0.357421 1.646484,0.703125 0.585938,0.486328 0.585938,1.171875 0,0.884765 -0.744141,1.535156 -0.744141,0.65039 -2.097656,0.65039 -1.347657,0 -2.085938,-0.492187 -0.732422,-0.498047 -0.996094,-1.394531 z m 7.136719,-0.84375 q 0,-1.728516 0.972656,-2.753907 0.978516,-1.03125 2.566407,-1.03125 1.376953,0 2.15039,0.761719 0.773438,0.75586 0.773438,2.039063 0,1.511718 -0.966797,2.613281 -0.966797,1.101562 -2.589844,1.101562 -0.878906,0 -1.558594,-0.351562 -0.679687,-0.351563 -1.013671,-0.996094 -0.333985,-0.644531 -0.333985,-1.382812 z m 4.792969,-1.201172 q 0,-0.597656 -0.351563,-0.955078 -0.345703,-0.363282 -0.896484,-0.363282 -0.544922,0 -0.966797,0.339844 -0.421875,0.333985 -0.65625,0.978516 -0.234375,0.638672 -0.234375,1.177734 0,0.667969 0.363281,1.060547 0.363282,0.392578 0.914063,0.392578 0.691406,0 1.160156,-0.591797 0.667969,-0.83789 0.667969,-2.039062 z m 3.580078,-2.4375 h 1.681641 l -0.767578,3.685547 q -0.140625,0.662109 -0.140625,0.826172 0,0.269531 0.199218,0.46289 0.199219,0.19336 0.509766,0.19336 0.222656,0 0.439453,-0.08203 0.216797,-0.08789 0.445313,-0.257812 0.228515,-0.175781 0.410156,-0.398438 0.18164,-0.222656 0.339844,-0.585937 0.111328,-0.269531 0.240234,-0.878906 l 0.621094,-2.964844 h 1.68164 L 52.111328,-22 h -1.570312 l 0.175781,-0.84375 q -1.03125,0.990234 -2.244141,0.990234 -0.767578,0 -1.207031,-0.439453 -0.439453,-0.439453 -0.439453,-1.177734 0,-0.322266 0.199219,-1.283203 z m 7.248047,0 h 1.570312 l -0.251953,1.207031 q 0.878907,-1.353516 1.904297,-1.353516 0.363281,0 0.779297,0.181641 l -0.644531,1.376953 q -0.228516,-0.08203 -0.486328,-0.08203 -0.433594,0 -0.884766,0.328125 -0.445312,0.328125 -0.697266,0.878906 -0.251953,0.544922 -0.498046,1.734375 L 55.380859,-22 h -1.68164 z m 7.681641,3.878906 1.634765,0.263672 q -0.404297,1.089844 -1.195312,1.658203 -0.791016,0.568359 -1.833985,0.568359 -1.189453,0 -1.886718,-0.708984 -0.697266,-0.708984 -0.697266,-1.951172 0,-1.013672 0.421875,-1.916015 0.421875,-0.902344 1.271484,-1.417969 0.84961,-0.521485 1.863282,-0.521485 1.101562,0 1.757812,0.574219 0.65625,0.574219 0.738281,1.511719 l -1.599609,0.169922 q -0.05859,-0.521485 -0.322266,-0.767578 -0.257812,-0.246094 -0.679687,-0.246094 -0.486328,0 -0.908203,0.363281 -0.421875,0.363281 -0.650391,1.089844 -0.222656,0.720703 -0.222656,1.353516 0,0.550781 0.269531,0.849609 0.269531,0.298828 0.673828,0.298828 0.404297,0 0.779297,-0.292969 0.375,-0.292968 0.585938,-0.878906 z m 8.513671,-0.246094 h -4.21875 q -0.0059,0.09961 -0.0059,0.152344 0,0.621094 0.351563,1.001953 0.357421,0.38086 0.867187,0.38086 0.837891,0 1.306641,-0.867188 l 1.505859,0.251953 q -0.439453,0.908203 -1.177734,1.365235 -0.732422,0.451171 -1.646485,0.451171 -1.253906,0 -2.039062,-0.791015 -0.785156,-0.796875 -0.785156,-2.103516 0,-1.277344 0.708984,-2.273437 0.966797,-1.347657 2.759766,-1.347657 1.142578,0 1.816406,0.708985 0.673828,0.703125 0.673828,1.974609 0,0.609375 -0.117188,1.095703 z m -1.417968,-1.02539 q 0.0059,-0.111328 0.0059,-0.169922 0,-0.691406 -0.310547,-1.03711 -0.310547,-0.345703 -0.832031,-0.345703 -0.521484,0 -0.9375,0.392578 -0.410156,0.392579 -0.556641,1.160157 z m 1.816406,1.875 1.628906,-0.257813 q 0.216797,0.515625 0.539063,0.732422 0.322265,0.210938 0.878906,0.210938 0.574219,0 0.919922,-0.257813 0.240234,-0.175781 0.240234,-0.427734 0,-0.169922 -0.123047,-0.304688 -0.128906,-0.128906 -0.697265,-0.316406 -1.523438,-0.503906 -1.886719,-0.796875 -0.568359,-0.457031 -0.568359,-1.195313 0,-0.738281 0.550781,-1.271484 0.767578,-0.744141 2.279297,-0.744141 1.201172,0 1.816406,0.439454 0.615234,0.439453 0.779297,1.189453 l -1.552735,0.269531 Q 76.275391,-26.810547 76,-26.980469 q -0.375,-0.228515 -0.902344,-0.228515 -0.527344,0 -0.761719,0.175781 -0.228515,0.175781 -0.228515,0.404297 0,0.234375 0.234375,0.386719 0.146484,0.09375 0.943359,0.328125 1.230469,0.357421 1.646485,0.703125 0.585937,0.486328 0.585937,1.171875 0,0.884765 -0.744141,1.535156 -0.74414,0.65039 -2.097656,0.65039 -1.347656,0 -2.085937,-0.492187 -0.732422,-0.498047 -0.996094,-1.394531 z m 8.859375,-0.445313 h -0.925781 l 0.527343,-4.382812 0.421875,-2.021485 h 1.763672 l -0.451172,2.173828 z m -1.371094,0.5625 h 1.664063 L 80.40625,-22 h -1.664063 z"
     id="text13"
     class="right"
     style="font-style:italic;font-weight:bold;font-size:12px;font-family:Arial, FreeSans, sans-serif;text-anchor:end;fill:#ffffff;stroke:#000000;stroke-width:2;paint-order:stroke"
     aria-label="js resources! ">
        <animateTransform
            attributeName="transform" type="translate" values="0 147;0 47;0 -53"
            begin="main.begin+4.25s" dur="1s"
            calcMode="spline" keySplines="0 1 0 1;1 0 1 0" />
     </path>
  <path
     d="m 14.154297,-25.738281 1.212891,0.726562 q -0.169922,0.328125 -0.445313,0.714844 -0.269531,0.380859 -0.503906,0.597656 0.333984,0.357422 0.855469,0.796875 l -1.060547,1.101563 q -0.199219,-0.105469 -0.509766,-0.357422 -0.304687,-0.251953 -0.515625,-0.474609 -0.421875,0.333984 -1.060547,0.55664 -0.638672,0.222656 -1.376953,0.222656 -1.3359375,0 -2.0976562,-0.703125 -0.7617188,-0.708984 -0.7617188,-1.734375 0,-0.65039 0.2988281,-1.207031 0.3046875,-0.5625 0.7851563,-0.960937 0.3457031,-0.28711 1.1249996,-0.703125 -0.380859,-0.826172 -0.380859,-1.441407 0,-0.902343 0.65625,-1.517578 0.662109,-0.615234 1.740234,-0.615234 0.925782,0 1.464844,0.492187 0.544922,0.486329 0.544922,1.142579 0,0.55664 -0.46875,1.207031 -0.462891,0.644531 -1.529297,1.183594 0.333985,0.5625 0.832031,1.289062 0.298829,0.445313 0.480469,0.638672 0.298828,-0.298828 0.714844,-0.955078 z m -2.636719,-2.121094 q 0.691406,-0.351562 0.972656,-0.708984 0.199219,-0.257813 0.199219,-0.521485 0,-0.240234 -0.164062,-0.392578 -0.158203,-0.158203 -0.439453,-0.158203 -0.351563,0 -0.585938,0.246094 -0.234375,0.240234 -0.234375,0.632812 0,0.375 0.251953,0.902344 z m -0.808594,1.880859 q -1.1601559,0.580079 -1.1601559,1.529297 0,0.539063 0.3457032,0.884766 0.3457027,0.345703 0.9199217,0.345703 0.697266,0 1.435547,-0.486328 -0.884766,-1.078125 -1.541016,-2.273438 z m 8.91211,1.394532 q 0,-1.728516 0.972656,-2.753907 0.978516,-1.03125 2.566406,-1.03125 1.376953,0 2.150391,0.761719 0.773437,0.75586 0.773437,2.039063 0,1.511718 -0.966797,2.613281 -0.966796,1.101562 -2.589843,1.101562 -0.878907,0 -1.558594,-0.351562 -0.679688,-0.351563 -1.013672,-0.996094 -0.333984,-0.644531 -0.333984,-1.382812 z m 4.792968,-1.201172 q 0,-0.597656 -0.351562,-0.955078 -0.345703,-0.363282 -0.896484,-0.363282 -0.544922,0 -0.966797,0.339844 -0.421875,0.333985 -0.65625,0.978516 -0.234375,0.638672 -0.234375,1.177734 0,0.667969 0.363281,1.060547 0.363281,0.392578 0.914062,0.392578 0.691407,0 1.160157,-0.591797 0.667968,-0.83789 0.667968,-2.039062 z m 2.712891,-1.189453 0.257813,-1.248047 h 0.820312 l 0.205078,-0.996094 1.927735,-1.160156 -0.451172,2.15625 h 1.02539 l -0.257812,1.248047 h -1.03125 l -0.544922,2.607422 q -0.146484,0.708984 -0.146484,0.808593 0,0.19336 0.123046,0.304688 0.123047,0.105469 0.445313,0.105469 0.111328,0 0.556641,-0.04102 l -0.263672,1.248047 q -0.433594,0.08789 -0.890625,0.08789 -0.890625,0 -1.294922,-0.339843 -0.404297,-0.345703 -0.404297,-0.955078 0,-0.28711 0.216797,-1.324219 l 0.521484,-2.501953 z M 32.40625,-22 h -1.681641 l 1.798828,-8.589844 h 1.681641 l -0.644531,3.058594 q 0.568359,-0.445312 1.060547,-0.638672 0.492187,-0.199219 1.054687,-0.199219 0.75586,0 1.195313,0.433594 0.439453,0.433594 0.439453,1.136719 0,0.375 -0.164063,1.160156 L 36.384766,-22 h -1.681641 l 0.779297,-3.708984 q 0.123047,-0.603516 0.123047,-0.773438 0,-0.310547 -0.19336,-0.498047 -0.193359,-0.1875 -0.527343,-0.1875 -0.421875,0 -0.808594,0.292969 -0.503906,0.386719 -0.767578,0.949219 -0.146485,0.310547 -0.386719,1.458984 z m 11.683594,-2.589844 h -4.21875 q -0.0059,0.09961 -0.0059,0.152344 0,0.621094 0.351563,1.001953 0.357422,0.38086 0.867187,0.38086 0.837891,0 1.306641,-0.867188 l 1.505859,0.251953 q -0.439453,0.908203 -1.177734,1.365235 -0.732422,0.451171 -1.646484,0.451171 -1.253907,0 -2.039063,-0.791015 -0.785156,-0.796875 -0.785156,-2.103516 0,-1.277344 0.708984,-2.273437 0.966797,-1.347657 2.759766,-1.347657 1.142578,0 1.816406,0.708985 0.673828,0.703125 0.673828,1.974609 0,0.609375 -0.117187,1.095703 z m -1.417969,-1.02539 q 0.0059,-0.111328 0.0059,-0.169922 0,-0.691406 -0.310547,-1.03711 -0.310546,-0.345703 -0.832031,-0.345703 -0.521484,0 -0.9375,0.392578 -0.410156,0.392579 -0.55664,1.160157 z m 3.240234,-2.607422 h 1.570313 l -0.251953,1.207031 q 0.878906,-1.353516 1.904297,-1.353516 0.363281,0 0.779296,0.181641 l -0.644531,1.376953 q -0.228515,-0.08203 -0.486328,-0.08203 -0.433594,0 -0.884766,0.328125 -0.445312,0.328125 -0.697265,0.878906 -0.251953,0.544922 -0.498047,1.734375 L 46.292969,-22 h -1.681641 z m 6.580078,4.482422 1.628907,-0.257813 q 0.216797,0.515625 0.539062,0.732422 0.322266,0.210938 0.878906,0.210938 0.574219,0 0.919922,-0.257813 0.240235,-0.175781 0.240235,-0.427734 0,-0.169922 -0.123047,-0.304688 -0.128906,-0.128906 -0.697266,-0.316406 -1.523437,-0.503906 -1.886719,-0.796875 -0.568359,-0.457031 -0.568359,-1.195313 0,-0.738281 0.550781,-1.271484 0.767578,-0.744141 2.279297,-0.744141 1.201172,0 1.816406,0.439454 0.615235,0.439453 0.779297,1.189453 l -1.552734,0.269531 q -0.123047,-0.339844 -0.398438,-0.509766 -0.375,-0.228515 -0.902343,-0.228515 -0.527344,0 -0.761719,0.175781 -0.228516,0.175781 -0.228516,0.404297 0,0.234375 0.234375,0.386719 0.146485,0.09375 0.94336,0.328125 1.230468,0.357421 1.646484,0.703125 0.585938,0.486328 0.585938,1.171875 0,0.884765 -0.744141,1.535156 -0.744141,0.65039 -2.097656,0.65039 -1.347657,0 -2.085938,-0.492187 -0.732422,-0.498047 -0.996094,-1.394531 z m 7.3125,-3.234375 0.257813,-1.248047 h 0.820312 l 0.205079,-0.996094 1.927734,-1.160156 -0.451172,2.15625 h 1.025391 l -0.257813,1.248047 h -1.03125 l -0.544922,2.607422 q -0.146484,0.708984 -0.146484,0.808593 0,0.19336 0.123047,0.304688 0.123047,0.105469 0.445312,0.105469 0.111328,0 0.556641,-0.04102 l -0.263672,1.248047 q -0.433594,0.08789 -0.890625,0.08789 -0.890625,0 -1.294922,-0.339843 -0.404297,-0.345703 -0.404297,-0.955078 0,-0.28711 0.216797,-1.324219 l 0.521485,-2.501953 z m 4.863282,-1.248047 h 1.68164 l -0.767578,3.685547 q -0.140625,0.662109 -0.140625,0.826172 0,0.269531 0.199219,0.46289 0.199219,0.19336 0.509766,0.19336 0.222656,0 0.439453,-0.08203 0.216797,-0.08789 0.445312,-0.257812 0.228516,-0.175781 0.410156,-0.398438 0.181641,-0.222656 0.339844,-0.585937 0.111328,-0.269531 0.240235,-0.878906 l 0.621093,-2.964844 h 1.681641 L 69.027344,-22 h -1.570313 l 0.175781,-0.84375 q -1.03125,0.990234 -2.24414,0.990234 -0.767578,0 -1.207031,-0.439453 -0.439454,-0.439453 -0.439454,-1.177734 0,-0.322266 0.199219,-1.283203 z m 10.376953,0 -0.257813,1.230469 H 73.597656 L 72.554687,-22 h -1.68164 l 1.042969,-4.992187 h -0.9375 l 0.257812,-1.230469 h 0.9375 l 0.134766,-0.638672 q 0.164062,-0.785156 0.310547,-1.060547 0.199218,-0.375 0.591796,-0.591797 0.398438,-0.222656 1.03711,-0.222656 0.773437,0 1.628906,0.28125 l -0.328125,1.201172 q -0.603516,-0.205078 -0.978516,-0.205078 -0.287109,0 -0.427734,0.18164 -0.09375,0.117188 -0.193359,0.615235 l -0.09375,0.439453 z m 3.779297,0 -0.257813,1.230469 H 77.376953 L 76.333984,-22 h -1.68164 l 1.042968,-4.992187 h -0.9375 l 0.257813,-1.230469 h 0.9375 l 0.134766,-0.638672 q 0.164062,-0.785156 0.310546,-1.060547 0.199219,-0.375 0.591797,-0.591797 0.398438,-0.222656 1.03711,-0.222656 0.773437,0 1.628906,0.28125 l -0.328125,1.201172 q -0.603516,-0.205078 -0.978516,-0.205078 -0.287109,0 -0.427734,0.18164 -0.09375,0.117188 -0.193359,0.615235 l -0.09375,0.439453 z m 1.628906,4.037109 h -0.925781 l 0.527343,-4.382812 0.421875,-2.021485 h 1.763672 l -0.451172,2.173828 z m -1.371094,0.5625 h 1.664063 L 80.40625,-22 h -1.664063 z"
     id="text14"
     class="right"
     style="font-style:italic;font-weight:bold;font-size:12px;font-family:Arial, FreeSans, sans-serif;text-anchor:end;fill:#ffffff;stroke:#000000;stroke-width:2;paint-order:stroke"
     aria-label="&amp; other stuff! ">
        <animateTransform
            attributeName="transform" type="translate" values="0 147;0 47;0 -53"
            begin="main.begin+5s" dur="1s"
            calcMode="spline" keySplines="0 1 0 1;1 0 1 0" />
     </path>
  <!-- Outset borders -->
  <path
     d="M 0 0 L 88 0 L 86 2 L 2 2 L 2 29 L 0 31 Z"
     fill="white"
     id="path14" />
  <path
     d="M 88 31 L 0 31 L 2 29 L 86 29 L 86 2 L 88 0 Z"
     fill="black"
     id="path15" />
</svg>
