<?xml version="1.0" encoding="utf-8"?>
<!-- Generator: Adobe Illustrator 26.1.0, SVG Export Plug-In . SVG Version: 6.00 Build 0)  -->
<svg version="1.1" id="Layer_1" xmlns="http://www.w3.org/2000/svg" xmlns:xlink="http://www.w3.org/1999/xlink" x="0px" y="0px"
	 viewBox="0 0 36 36" style="enable-background:new 0 0 36 36;" xml:space="preserve">
<style type="text/css">
	.st0{fill:#5C913B;}
	.st1{fill:#F4900C;}
	.st2{fill:#F7B82D;}
	.st3{fill:#77B255;}
	.st4{fill:#A98ED4;}
	.st5{fill:#A88DD6;}
	.st6{fill:#F6B830;}
	.st7{fill:#74D8ED;}
</style>
<path class="st0" d="M11.7,9.3c-1.4,1.4-5.4,6.8-3.4,11.5c2,4.8,4.8,1.8,6.1-2c0.7-2,0.7-4.8-0.7-8.8C13,8,11.7,9.3,11.7,9.3z
	 M27.4,25.1c-1.4,1.4-6.8,5.4-11.5,3.4c-4.8-2-1.8-4.8,2-6.1c2-0.7,4.8-0.7,8.8,0.7C28.8,23.7,27.4,25.1,27.4,25.1z"/>
<path class="st1" d="M25.5,13.6c0,0-0.1-1.4-0.6-1.8c-0.4-0.4-1.6-0.4-1.6-0.4c-1.4,0-17,2-19.7,15.6c-0.5,2.4,3.8,6.7,6.2,6.2
	C23.3,30.5,25.5,15,25.5,13.6z"/>
<path class="st2" d="M19.3,15.7L18,14.4c-0.4-0.4-1-0.4-1.3,0c-0.4,0.4-0.4,1,0,1.3L18,17c0.4,0.4,1,0.4,1.3,0
	C19.7,16.6,19.7,16,19.3,15.7z M11.4,17c0.4,0.4,1,0.4,1.3,0c0.4-0.4,0.4-1,0-1.3L12.1,15c-0.5,0.3-1.1,0.7-1.6,1.1
	C10.5,16.1,11.4,17,11.4,17z M13.4,15c0.4,0.4,1,0.4,1.3,0c0.4-0.4,0.4-1,0-1.3l0,0c-0.6,0.3-1.2,0.6-1.8,0.9L13.4,15z M9.4,19
	c0.4,0.4,1,0.4,1.3,0c0.4-0.4,0.4-1,0-1.3l-1-1c-0.5,0.4-0.9,0.8-1.4,1.2L9.4,19z M18.7,12.4c-0.4,0.4-0.4,1,0,1.3L20,15
	c0.4,0.4,1,0.4,1.3,0c0.4-0.4,0.4-1,0-1.3L20,12.4C19.6,12,19,12,18.7,12.4z M20.6,11.7C20.6,11.7,20.6,11.7,20.6,11.7l1.3,1.3
	c0.4,0.4,1,0.4,1.3,0c0.4-0.4,0.4-1,0-1.3l-0.4-0.4C22.5,11.4,21.7,11.5,20.6,11.7z M17.4,19c0.4-0.4,0.4-1,0-1.3L16,16.3
	c-0.4-0.4-1-0.4-1.3,0c-0.4,0.4-0.4,1,0,1.3L16,19C16.4,19.3,17,19.3,17.4,19z M15.4,21c0.4-0.4,0.4-1,0-1.3l-1.3-1.3
	c-0.4-0.4-1-0.4-1.3,0c-0.4,0.4-0.4,1,0,1.3l1.3,1.3C14.4,21.3,15,21.3,15.4,21z M11.4,24.9c0.4-0.4,0.4-1,0-1.3l-1.3-1.3
	c-0.4-0.4-1-0.4-1.3,0c-0.4,0.4-0.4,1,0,1.3l1.3,1.3C10.5,25.3,11,25.3,11.4,24.9z M10.8,20.3c-0.4,0.4-0.4,1,0,1.3l1.3,1.3
	c0.4,0.4,1,0.4,1.3,0c0.4-0.4,0.4-1,0-1.3l-1.3-1.3C11.7,19.9,11.1,19.9,10.8,20.3z"/>
<path class="st3" d="M21.9,27.7C16,25.8,9.5,28.2,6,30.6c2.4-3.5,4.9-10,2.9-15.8c-0.8-2.3-4.6-4.6-6.9-2.3c-0.8,0.8-1.5,1.5,0,1.5
	s3.8,2.3,3,4.6c-0.7,2-5.6,7.1-3.4,12.5c-0.2,0.1-0.4,0.2-0.6,0.4l-0.6,0.6c-0.8,0.8-0.8,2,0,2.7l0.6,0.6c0.8,0.8,2,0.8,2.7,0
	l0.6-0.6c0.1-0.1,0.2-0.2,0.3-0.3c5.7,3.1,11.2-2.3,13.4-3c2.3-0.8,4.6,1.5,4.6,3c0,1.5,0.8,0.8,1.5,0
	C26.4,32.3,24.1,28.5,21.9,27.7z"/>
<path class="st4" d="M21.9,10.6c-0.2,0.1-0.4,0.2-0.6,0.2c-0.7-0.1-1.3-0.3-1.7-0.7c-0.4-0.4-0.7-1-0.6-1.5c0.1-1,1.1-1.9,2.7-1.7
	c0.6,0.1,0.9-0.1,0.9-0.2c0-0.1-0.2-0.4-0.9-0.4c-0.7-0.1-1.3-0.3-1.7-0.7c-0.4-0.4-0.7-1-0.6-1.5c0.1-1,1.1-1.9,2.7-1.7
	c0.5,0.1,0.7,0,0.8-0.1c0.1-0.1,0.1-0.1,0.1-0.1c0-0.1-0.2-0.4-0.9-0.4c-0.4,0-0.8-0.4-0.7-0.9C21.6,0.3,22,0,22.5,0
	c1.7,0.2,2.4,1.2,2.3,2.2c-0.1,1-1.1,1.9-2.7,1.7c-0.5-0.1-0.7,0-0.8,0.1c-0.1,0.1-0.1,0.1-0.1,0.1c0,0.1,0.2,0.4,0.9,0.4
	c1.7,0.2,2.4,1.2,2.3,2.2c-0.1,1-1.1,1.9-2.7,1.7c-0.5-0.1-0.7,0-0.8,0.1c-0.1,0.1-0.1,0.1-0.1,0.1c0,0.1,0.2,0.4,0.9,0.4
	c0.4,0,0.8,0.4,0.7,0.9C22.2,10.3,22.1,10.5,21.9,10.6z"/>
<path class="st5" d="M25.5,15.9c-0.2,0-0.5-0.1-0.6-0.3c-0.3-0.4-0.2-0.9,0.1-1.1c0.2-0.1,4.4-3.5,10.3-2.6c0.4,0.1,0.8,0.5,0.7,0.9
	c-0.1,0.4-0.5,0.8-0.9,0.7c-5.3-0.7-9.1,2.2-9.1,2.3C25.8,15.8,25.7,15.9,25.5,15.9z"/>
<circle class="st6" cx="7.5" cy="9.1" r="1.6"/>
<path class="st7" d="M31.7,18.1c1.6-0.5,2.7,0.3,3,1.2c0.3,0.9-0.3,2.1-1.9,2.6c-0.6,0.2-0.8,0.5-0.8,0.6c0,0.1,0.3,0.3,1,0.1
	c1.6-0.4,2.7,0.3,3,1.2c0.3,0.9-0.3,2.1-1.9,2.6c-0.6,0.2-0.8,0.5-0.8,0.6c0,0.1,0.3,0.3,1,0.1c0.4-0.1,0.9,0.1,1,0.6
	c0.1,0.4-0.1,0.9-0.6,1c-1.6,0.4-2.7-0.3-3-1.2c-0.3-0.9,0.3-2.1,1.9-2.6c0.6-0.2,0.8-0.5,0.8-0.6c0-0.1-0.3-0.3-1-0.1
	c-1.6,0.5-2.7-0.3-3-1.2c-0.3-0.9,0.3-2.1,1.9-2.6c0.6-0.2,0.8-0.5,0.8-0.6c0-0.1-0.3-0.3-1-0.1c-0.4,0.1-0.9-0.1-1-0.6
	C31,18.6,31.3,18.2,31.7,18.1z"/>
<path class="st7" d="M11.5,12.5c-0.1,0-0.2,0-0.2,0c-0.4-0.1-0.7-0.6-0.5-1c0.9-3.1,1.8-7.9,0.7-9.2C11.3,2.1,11.2,2,10.8,2
	c-0.8,0.1-0.7,1.7-0.7,1.7c0,0.4-0.3,0.8-0.7,0.9c-0.5,0-0.8-0.3-0.9-0.7c-0.1-1.1,0.3-3.3,2.2-3.4c0.9-0.1,1.6,0.2,2.1,0.9
	c1.9,2.4,0,9.3-0.4,10.7C12.2,12.3,11.8,12.5,11.5,12.5z"/>
<circle class="st7" cx="27.5" cy="7.3" r="1.2"/>
<circle class="st7" cx="33.2" cy="15.4" r="1.2"/>
<circle class="st7" cx="18.5" cy="22.6" r="1.2"/>
<circle class="st6" cx="29.5" cy="2.8" r="1.6"/>
<circle class="st6" cx="33.2" cy="6.4" r="1.2"/>
<circle class="st6" cx="30.7" cy="9.7" r="1.2"/>
<circle class="st6" cx="26.9" cy="20.7" r="1.2"/>
<image style="display:none;overflow:visible;" width="128" height="128" xlink:href="cornfetti original.png"  transform="matrix(0.2817 0 0 0.2817 -6.320047e-02 -3.160024e-02)">
</image>
</svg>
