<?xml version="1.0" encoding="utf-8"?>
<!-- Generator: Adobe Illustrator 26.0.3, SVG Export Plug-In . SVG Version: 6.00 Build 0)  -->
<svg version="1.1" id="Layer_1" xmlns="http://www.w3.org/2000/svg" xmlns:xlink="http://www.w3.org/1999/xlink" x="0px" y="0px"
	 viewBox="0 0 431.8 469.9" style="enable-background:new 0 0 431.8 469.9;" xml:space="preserve">
<style type="text/css">
	.st0{fill-rule:evenodd;clip-rule:evenodd;fill:#730531;}
	.st1{fill-rule:evenodd;clip-rule:evenodd;fill:#1A2C75;}
	.st2{fill-rule:evenodd;clip-rule:evenodd;fill:#4A78B4;}
	.st3{fill-rule:evenodd;clip-rule:evenodd;fill:#789CCE;}
</style>
<path id="path0" class="st0" d="M-405.2-1.8c28.1,17.5,63.1,54.4,62.5,83.9c-0.2,8.2-8.8,23-8.8,23s1.3-0.3,5.3-4.1
	c6.6-6.3,10.4-9.4,16.8-6.9s10,9.2,11.9,15.7c3.2,11,5.5,27.8,6,34.6c0.1,1.6,0.2,3.3,0.2,4.9c-0.2,40.5-6.4,53.4-14.3,61.3
	c-2.2,2.2-5.1,4.2-7.6,6c-7.1,5.2-29,12.4-29,12.4s18.4,4.4,28.7,13.9c3.7,3.4,7.1,10.1,3.5,15.5c-0.4,0.5-15.2,34.8-80.9,64.8
	c0,0,23.5,32.2,1.9,50.7c27.8-2.9,52.3-11.2,56.2-1.1c15.6,35.3-15.5,59.4-30.9,70c-5.5,3.8-11.7,6.5-18.3,7.8
	c-32.5,6.5-56.3-2.8-57.3-3.4c-0.7-0.3-21.7-11.5-38.4-28.1c-1.1-1.1-2.3-1.9-3.7-2.5c-23.8-9.8-51.3,3.5-66.3,7.4
	c-1.8,0.5-3.7,0.8-5.6,0.9c-27.9,1.7-57.5-11.4-59.7-52.7c-14.7,7.1-28.1,6-36.9,1.6c-1.2-0.6-2.3-1.5-3.1-2.7
	c-3.6-5.2-4.1-9.4-2.8-18.5c0,0,2.2-19,22.1-34c-26.8-11.5-41.9-37.5-43.8-40.4c-2-2.9-5.7-19.3,7.3-30.8
	c-14.4,4.8-29.4,3.5-32.4-1.9s0.4-9.7-0.8-22.6c-1.2-12.2-6.6-18.6,1-32.1c1.2-2.1,2.9-3.8,5.1-4.9c10.1-5.4,24.8-10.4,36.1-13.7
	c-26-26.3-28.1-28.3-35.2-48.2c-0.6-2.3-0.6-4.8-0.2-7.2c4.1-22.2,27.5-64.8,51.8-59.7c15.9,5.4,44.6,62.2,44.6,62.2
	s23.1-12.6,34.8-17.3c11.7-4.7,61-13.3,75.9-13.5s29,1.8,35.6,3.6c6.4,1.8,18.4,8,18.4,8s17.5-55.2,37.8-97.2
	C-416.6-0.6-410.7-5.3-405.2-1.8z"/>
<path id="path3" class="st1" d="M-385.7,122.9c0,7.3-22.3,26.4-32.7,30.7c-1.4,0.6-3-0.2-3.3-1.7c-4.1-17.8-14.5-30.4-25.3-45.1
	c-0.5-0.6-0.6-1.4-0.4-2.2c3.6-12.9,7.1-29.8,14.9-34.6c1.5-0.9,3.1-0.3,3.9-0.2C-414.2,71.5-385.7,112.3-385.7,122.9z
	 M-644.2,104.5c-11.8,4.9-31.5,25.9-39.4,44.5c-0.7,1.7-0.7,3.7,0.3,5.3c2.8,4.9,11.2,11.2,24.9,19.4c1.4,0.8,3.2,0.1,3.6-1.4
	c4.7-17.2,13.3-34.7,27-44.2c1-0.7,1.3-2,0.8-3.1c-5.4-10.5-10.5-17.9-14.6-20.3C-642.4,104.2-643.4,104.1-644.2,104.5z M-377,146.7
	c-2.7-4.6-28.2,17-37.4,25.4c-0.6,0.6-0.9,1.4-0.7,2.2c2.7,17.1,2.3,30,0.8,40.4c-0.1,1,0.3,2,1.2,2.5c11.3,6.4,39.9,3.6,41.1-5.1
	C-368.3,197.1-361.9,172.7-377,146.7z M-659.2,181.8c-10.5-0.5-23.1,1.4-28.6,3.6c-1.7,0.7-2.8,2.4-2.6,4.2
	c0.7,7.6,4.6,30.5,7.6,37.8c0.7,1.7,2.4,2.8,4.2,2.7c6-0.3,15.3-4.3,26.7-11.9c1.7-1.1,2.3-3.4,1.5-5.3c-3.5-8.4-5-20.1-5.1-27.4
	C-655.5,183.6-657.1,181.9-659.2,181.8z M-662.1,244.7c3.2,8.9,21.4,32.4,31,38.3c2,1.2,4.7,0.9,6.3-0.8c4.3-4.4,8.3-12.8,11.7-24.3
	c0.3-0.9,0-1.8-0.6-2.4c-6.9-6.8-22.4-22.5-26.1-27.6c-0.5-0.7-1.3-1.1-2.1-1c-5.9,0.4-15.8,9.2-19.4,13.4
	C-662.3,241.6-662.6,243.3-662.1,244.7z M-416.5,230.9c-8.6,17.4-18.1,28.5-27.5,37.4c-0.6,0.6-0.9,1.5-0.7,2.3
	c1.5,7.3,10.4,13.4,18.2,15.9c0.7,0.2,1.5,0.1,2.1-0.2c11-5.2,45.8-44,44-49.8c-2.1-6.5-26.8-8.3-34.3-6.9
	C-415.5,229.7-416.2,230.2-416.5,230.9z M-449,377.1c-1.5,1.2-3.8,5.4-4.8,8.6c-3.6,11-10.7,18-23.3,23.4c-4.9,2.1-5.3,9,19.4,20
	c20.2,8.2,44.6,5.1,46.3,4.8c0.1,0,0.1,0,0.2,0c2.2-0.5,37.9-9.2,45.5-39.9c1.6-4.9-2.7-8.2-8.4-6.5c-3.4,1-11.1,5.1-25.6,5.9
	c-13.6,0.5-16.8-2-26.9-6.9C-432.9,383.4-445.8,373.9-449,377.1z"/>
<path id="path2" class="st2" d="M-475.5,271.6c-2.2,1.6-5.7,2.5-7,2.8c-0.7,0.2-1.8,0.6-3.3,1.2c-1.4,0.6-3.1,1.3-4.5,1.9
	c-2.9,1.3-6.4,2.9-7.6,3.5c-3.6,1.6-4.6,4.2-2.5,6.4c1.5,1.5,2.8,1.5,6.4-0.2c4.1-2,6.9-2.2,9.3-0.5c1,0.7,1.7,1.6,2.3,2.6
	c21.7,36.7,35.6,111-6.7,111.9c-13-0.2-19.7-6.9-41.2-6.2c-49.8,7.9-39.6,14.7-65.1,7.5c-54.4-42.9,4.4-136.4,7.4-139.7
	c1.6-1.7,3.6-4.2,4.4-5.4c2.6-3.8,3.1-4.6,13.8,0.2c4.3,1.9,8.5,3.4,10,11.2c0.5,2.7,0.3,5.4-0.4,8c-2.7,9.3-4.9,16.8-6.2,22.3
	c-2,8.1-2.1,11.9,0.8,11.4c3.9-0.7,9.9-7.8,13.7-22.3c1.4-5.3,2.5-11.7,3.1-19c0.2-1.9,0.1-3.8-0.3-5.7c-0.9-4.7,0.5-6.7,8.4-10.8
	c0,0,5.4-4.5,14.1-3.3c13.7,2.8,24.1,3,31.7,1.9c13-1.9,18.1-7.6,18.2-10.3c0.2-5-7-6.8-14.3-3.6c-23.3,5.7-31.1-4.4-35.4-4.5
	c-6.7-0.2-7.1-0.1-18.9,5.7c-12.3,6.1-11.9,5.9-18,5.7c-5.7-0.2-9.2-1.5-14.3-5.5c-9.4-7.2-14.9-6.8-16.3,1.4
	c-1,5.9-4.3,9.9-7.6,10.4c-0.6,0.1-1.3,0-1.9-0.3c-7.7-3.3-15.4-10.5-21.6-17.7c-8.1-9.3-13.8-18.4-13.8-18.4
	c-3.3-6.6-6.7-13.3-5-30c0.5-5.1,0.4-9,3.7-19.3c3.6-11.1,7.8-14.9,13-20.9c13.6-15.4,32.4-26.7,52.3-34.2
	c26.8-10.1,55.6-13.5,76.6-11.3C-492.2,99.1-396.6,214.2-475.5,271.6z M-427.3,326.4c5.9,5.7,15.6,13.9,14.8,28.6
	c-0.3,4.6-6.7,16.5-16.7,14.1c-1.6-0.4-3.8-1.7-4.9-2.8c-10.9-10.2-12.1-13.8-15-19.5c-1.1-2.1-1.9-4.3-2.6-6.6
	c-4-14.4-17.4-48.3-15.6-49.9C-465.3,288.2-441.3,313-427.3,326.4z M-407.2,403c1.3,8.9,4.7,29.3-4.2,31
	c-10.9,2.1-35.4,3.8-59.4-11.6c-12.5-8-10.8-12.6-3.2-15.1c1.4-0.5,3-1.1,4.2-1.9c4.5-3,7.6-4.9,11-9.8c5.3-7.5,6.3-17.6,10.6-18.9
	c4.4-1.4,13.7,6.2,29.6,13.8C-412.7,393.2-408.4,394.6-407.2,403z"/>
<path id="path1" class="st3" d="M-352.5,79.6c-1.1,14.9-20.9,37.7-24.1,37.7c-3.7,0-11.6-18.2-23-31.7
	c-12.4-14.8-28.3-25.1-28.5-27.1c-0.4-6.2,11.5-48.8,19.8-49.7C-403.1,8.2-350.6,53.1-352.5,79.6z M-647.8,97.6
	c-17.7,9.7-35.7,33-42.7,45.7c-0.6,1.2-2.1,1.5-3.2,0.8c-7.5-5-11.5-16.5-13.8-22.7c-0.4-1-0.5-2.1-0.3-3.2
	c1.8-10.9,18.1-44.3,36.4-51.7c1.5-0.6,3.1-0.3,4.3,0.6c5.7,4.5,16,18,20.2,27.5C-646.4,95.8-646.8,97-647.8,97.6z M-331.8,105.6
	c13.5,7.4,15.8,75.1-0.4,97.6c-8.5,11.9-32.1,14.7-33.7,13c-1.5-1.6,5.7-17.9,5.9-36.3c0.2-20.4-10-35.6-9.5-40.8
	C-369,133.5-339.1,101.5-331.8,105.6z M-522.7,182c13.8,1.3,16.8,3.7,18,5.1c3.3,3.5,3.9,7.9,4,9.4c0,0.4,0.9,8.4-4.4,14.4
	c-2.3,2.6-5.2,3.4-16.3,6.3c-11.9,3.1-22,3.9-29.1,4.1c-10.3,0.2-15.5,0-20.4-3.2c-5.8-3.8-12.1-11.6-10.5-18.9
	c1.5-6.5,8.1-10.7,18.5-13.6C-545.6,180.7-533.4,181-522.7,182z M-691.1,231.9c0.2,0.9-0.1,2.2-0.7,3c-5.1,6-19.1,8.5-23.5,6.4
	c-0.9-0.4-1.5-1.6-1.4-2.6c1.8-15.5-0.6-25.3-2.2-37c-0.2-1.1,0.1-2.3,0.7-3.3c2.6-4.2,13.5-8.4,18.7-9.6c1.1-0.3,2.1,0.5,2.1,1.6
	C-696.5,204.5-694.7,218.5-691.1,231.9z M-340.8,252.3c0.8,0.9,0.6,2.2,0.3,3.1c-5.4,17.7-49,49.4-62.8,52.5c-1.4,0.3-2.7,0.7-4-0.1
	c-4.2-2.5-9.6-7.5-11.4-11.1c-0.5-0.9-0.5-2.1,0-3c3.5-6.9,20.4-20.3,26-27.1c8.2-9.9,16.2-21.5,23.6-26.8c0.9-0.6,2-0.8,3.1-0.5
	C-357.9,241.5-345.1,247.5-340.8,252.3z M-634.4,293.4c-1.9,5.5-4.3,10.2-6.4,12.6c-0.7,0.7-1.6,1.2-2.6,1.2
	c-15.1,0.6-41.7-28.5-45.3-37.5c-0.4-1.1-0.5-2.2-0.3-3.3c1.4-6.6,12.7-16.2,16.5-18.6c0.9-0.6,2-0.3,2.6,0.6
	c4.5,7.4,22.2,31.5,34.9,42.7C-634.4,291.6-634.2,292.5-634.4,293.4z M-580,254.3c0,0-1,3.5-2.5,8.6c-6.5,21.5-15.9,39.5-18.5,49.3
	c-2.6,9.8-4.5,20.7-5,31.1c-0.4,8.9,0.3,16.9,1.1,20.3c7.3,33,16.7,40.7,16.7,40.7c-6.8,0-12.9-4.9-16.5-8.1c-0.6-0.6-1.3-1.2-2-1.9
	c-3.6-3.8-6-8.6-7.8-13.6c-1.5-4.1-3.2-10.2-4.6-16.8c-1.4-6.5-2-13-1.9-19.4c0-4.4,0.4-8.7,0.9-12.9c0.6-4.3,1.4-8.5,2.4-12.6
	c1-4.1,2.2-8.1,3.5-12c1.1-3.2,2.3-6.3,3.6-9.3c1.1-2.5,2.2-4.9,3.3-7.3c1.1-2.4,2.3-4.6,3.5-6.8c1.1-2.1,2.3-4.1,3.4-6
	c1.1-1.9,2.3-3.7,3.4-5.4c1.4-2.2,2.9-4.2,4.2-6c1.4-1.8,2.7-3.5,4-4.9C-584.7,256.9-581.5,254.4-580,254.3z M-452.6,337.2
	L-452.6,337.2c-2.9-7.9-16.2-45.3-15.5-47.2c0.8-1.9,9.9,6,17,13.3c0,0-1.8,5.1-2.2,11.6C-453.7,324.3-452.7,336.4-452.6,337.2z
	 M-488,333c0.1,6.6-4.3,11.3-10.1,17.5c-6,6.4-9.2,9.8-13.9,9.9c-6.9,0.2-12.3-6.4-18.9-14.5c-2.5-3-3.8-5.3-5.8-8.9
	c-2.4-4.3-2.6-5.5-2.6-6.4c-0.1-3.3,2.2-6.1,5.5-9c7.8-6.9,17.9-11.1,24.5-13.4c3.4,1.5,9.3,4.7,14.5,10.9
	C-491.6,323.1-488.1,327.3-488,333z M-475.8,302c0.9,1.8,3.6,8.2,5.7,14.3c1.1,3,2.3,7.1,3.1,10.2c4.6,15,8.9,25,3.8,51.8
	c-1,4.3-3.1,9-3.1,9c-4.4,8.9-9.2,12.1-19.9,14.1c-6.7,1.2-25.1-4.1-27.6-5.2c-4.7-2.1,9.2-20.1,26-42.8c6.5-8.8,7-18.3,5.2-24.8
	c-2.8-16.5-8.6-22.7-8.6-22.7c-1.9-5-2.2-6.7-4-11.3c-0.6-1.4-3.6-6.1-3.6-6.1c1.2,0.1,1.5,0,3-0.5c1.6-0.6,2.3-1.1,3.4-1.5
	c2.2-0.8,4.2-1.3,6.5-0.3C-482.9,287.3-481.4,290.2-475.8,302z M-634.8,328.3c-1.6,10.5-1.5,22.3-1.4,25.5c0,0.6-0.1,1.3-0.3,1.9
	c-1.7,4.1-7.3,10-24.1,9.9c-6.9,0-8.2-4.6-7.8-8.5c0.2-2.5,0.9-5,2-7.3c3-6.8,8.8-16.3,16.9-22.4l0,0c3.2-2,7.1-3.1,13.1-1.5
	C-635.3,326.1-634.6,327.2-634.8,328.3z M-422.4,195c0,24.5-8.3,45.5-20.2,59.8c-3.3,3.9-6.5,7.4-10.7,10.3
	c-12.1,8.5-32.5,10.5-32.5,10.5s40.5-32.9,39.9-72.3c-0.1-6.9-2.5-23.8-9.3-38.1c-15.1-31.3-27.7-48.9-42.7-66.8
	c0.2,0,22.3,3.6,34.7,10.8C-432.3,127.4-422.4,176.7-422.4,195z"/>
<path id="path2_copy" class="st0" d="M-499.3,297c6.9,3,14.2,10.7,18.5,19.5c0.8,1.8,1.7,4,2.3,6.7c0.6,2.8,0.9,5.3,0.9,7.3
	c0.2,4.1-0.2,10.1-3.6,15.7c-2.2,3.6-5.2,5.9-8.7,8.8c-11.1,9.5-14.7,12.2-23.2,23.7c-4.4,7.7-10.5,7.1-11-1.2
	c-0.4-6.4,5.4-18.8,10.5-22.4c1.1-0.8,3.3-2.5,4.7-3.8c1.5-1.3,4.2-3.2,6-4.4c8.3-5,11.7-9.9,11.7-16.4c-1.3-8.2-17.9-35.9-40.7-5.4
	c-0.9,1.6-5.7,8.8-6.5,10.5c-5.9,13.2-17.4,15.2-14.2,1.1c1.6-4,11.2-20,12.6-22.8C-529.3,295-508.9,294-499.3,297z"/>
<path id="noseblot1" class="st0" d="M-571.3,201.2c-4.8,9.8,1.4,14.4,9.1,6.9c4.7-4.6,5.1-9.1,1.1-12.1
	C-564.9,193.1-568.1,194.7-571.3,201.2z"/>
<path id="noseblot2_00000124884653448191386590000016499061892586068396_" class="st0" d="M-549.1,200.3c-2.7,5.7-1.4,10.6,3.1,11
	c6.5,0.7,11.3-14,5.4-16.8C-544.1,192.9-546.2,194.3-549.1,200.3z"/>
<path id="noseblot3_00000003076917033055671810000008225767576479381890_" class="st0" d="M-530,208.1c0.8,1.5,2.9,2.8,4.6,2.8
	c5.6,0,12.1-12.8,8.4-16.4C-522.5,189-533.9,200.9-530,208.1z"/>
<path id="noseblot4" class="st0" d="M-503.5,195.8c-3,1.6-5.2,8-5.2,12.1c0,1.9,0.9,3.3,3,3.3c2.2,0.2,3.6,0.2,6.3-3.1
	c4.3-5.2,6.5-15-1.4-13.2C-501.3,195-502.4,195.2-503.5,195.8z"/>
<path id="righteye" class="st0" d="M-467.9,192.7c-1.5,0.5-5.7,2.7-6.6,6.7c-1.2,5.7,2.6,9.9,8,11.8c2.6,1,6.5,1.9,9.4,1.3
	c3-0.5,6-1.4,8-4.9c2.2-3.7-1.3-12-6.6-14.1C-460.4,191.7-464.9,191.7-467.9,192.7z"/>
<path id="lefteye" class="st0" d="M-622.9,199.4c-4.7,8.6,4.2,18,13.1,13.7c2.5-1.2,9.2-8.2,9.9-10.3c1.9-5.5-0.6-11.7-5.1-13
	C-610.1,188.4-619.7,193.5-622.9,199.4z"/>
<path id="path3_00000000203351157136809150000017491941294243760787_" class="st1" d="M350,131.5c0,7.3-22.3,26.4-32.7,30.7
	c-1.4,0.6-3-0.2-3.3-1.7c-4.1-17.8-14.5-30.4-25.3-45.1c-0.5-0.6-0.6-1.4-0.4-2.2c3.6-12.9,7.1-29.8,14.9-34.6
	c1.5-0.9,3.1-0.3,3.9-0.2C321.5,80.1,350,120.9,350,131.5z M91.5,113.1C79.7,118,60,139,52.1,157.6c-0.7,1.7-0.7,3.7,0.3,5.3
	c2.8,4.9,11.2,11.2,24.9,19.4c1.4,0.8,3.2,0.1,3.6-1.4c4.7-17.2,13.3-34.7,27-44.2c1-0.7,1.3-2,0.8-3.1
	c-5.4-10.5-10.5-17.9-14.6-20.3C93.3,112.8,92.3,112.7,91.5,113.1z M358.7,155.3c-2.7-4.6-28.2,17-37.4,25.4
	c-0.6,0.6-0.9,1.4-0.7,2.2c2.7,17.1,2.3,30,0.8,40.4c-0.1,1,0.3,2,1.2,2.5c11.3,6.4,39.9,3.6,41.1-5.1
	C367.4,205.7,373.8,181.2,358.7,155.3z M76.5,190.4c-10.5-0.5-23.1,1.4-28.6,3.6c-1.7,0.7-2.8,2.4-2.6,4.2
	c0.7,7.6,4.6,30.5,7.6,37.8c0.7,1.7,2.4,2.8,4.2,2.7c6-0.3,15.3-4.3,26.7-11.9c1.7-1.1,2.3-3.4,1.5-5.3c-3.5-8.4-5-20.1-5.1-27.4
	C80.2,192.2,78.6,190.5,76.5,190.4z M73.6,253.3c3.2,8.9,21.4,32.4,31,38.3c2,1.2,4.7,0.9,6.3-0.8c4.3-4.4,8.3-12.8,11.7-24.3
	c0.3-0.9,0-1.8-0.6-2.4c-6.9-6.8-22.4-22.5-26.1-27.6c-0.5-0.7-1.3-1.1-2.1-1c-5.9,0.4-15.8,9.2-19.4,13.4
	C73.4,250.2,73.1,251.9,73.6,253.3z M319.2,239.5c-8.6,17.4-18.1,28.5-27.5,37.4c-0.6,0.6-0.9,1.5-0.7,2.3
	c1.5,7.3,10.4,13.4,18.2,15.9c0.7,0.2,1.5,0.1,2.1-0.2c11-5.2,45.8-44,44-49.8c-2.1-6.5-26.8-8.3-34.3-6.9
	C320.2,238.3,319.5,238.8,319.2,239.5z M295.6,400.1c-1.5,1.2,0.2,13.7-0.8,16.9c-3.6,11,4.9,1.5-7.7,6.9
	c-4.9,2.1-12.2-0.3,12.5,10.7c20.2,8.2,22.9,8.2,24.6,7.9c0.1,0,0.1,0,0.2,0c2.2-0.5,37.9-9.2,45.5-39.9c1.6-4.9-2.7-8.2-8.4-6.5
	c-3.4,1-11.1,5.1-25.6,5.9c-13.6,0.5-16.8-2-26.9-6.9C302.8,392,298.8,396.9,295.6,400.1z"/>
<path id="path2_00000138564025066144881330000016087391254670775168_" class="st2" d="M260.2,280.2c-2.2,1.6-5.7,2.5-7,2.8
	c-0.7,0.2-1.8,0.6-3.3,1.2c-1.4,0.6-3.1,1.3-4.5,1.9c-2.9,1.3-6.4,2.9-7.6,3.5c-3.6,1.6-4.6,4.2-2.5,6.4c1.5,1.5,2.8,1.5,6.4-0.2
	c4.1-2,6.9-2.2,9.3-0.5c1,0.7,1.7,1.6,2.3,2.6c21.7,36.7,35.6,111-6.7,111.9c-13-0.2-19.7-6.9-41.2-6.2
	c-49.8,7.9-40.3,19.6-65.8,12.4c-54.4-42.9,5.1-141.3,8.1-144.6c1.6-1.7,3.6-4.2,4.4-5.4c2.6-3.8,3.1-4.6,13.8,0.2
	c4.3,1.9,8.5,3.4,10,11.2c0.5,2.7,0.3,5.4-0.4,8c-2.7,9.3-4.9,16.8-6.2,22.3c-2,8.1-2.1,11.9,0.8,11.4c3.9-0.7,9.9-7.8,13.7-22.3
	c1.4-5.3,2.5-11.7,3.1-19c0.2-1.9,0.1-3.8-0.3-5.7c-0.9-4.7,0.5-6.7,8.4-10.8c0,0,5.4-4.5,14.1-3.3c13.7,2.8,24.1,3,31.7,1.9
	c13-1.9,18.1-7.6,18.2-10.3c0.2-5-7-6.8-14.3-3.6c-23.3,5.7-30.9-0.8-35.2-0.9c-6.7-0.2-7.3-3.7-19.1,2.1c-12.3,6.1-11.9,5.9-18,5.7
	c-5.7-0.2-9.2-1.5-14.3-5.5c-9.4-7.2-14.9-6.8-16.3,1.4c-1,5.9-4.3,9.9-7.6,10.4c-0.6,0.1-1.3,0-1.9-0.3
	c-7.7-3.3-15.4-10.5-21.6-17.7c-8.1-9.3-13.8-18.4-13.8-18.4c-3.3-6.6-9.9-12.8-8.2-29.5c0.5-5.1-0.2-10.8,3.2-21
	c3.6-11.1,9.6-20.2,14.9-26.1c13.6-15.4,34.4-20.1,54.3-27.6c26.8-10.1,55.6-13.5,76.6-11.3C243.5,107.7,339.1,222.8,260.2,280.2z
	 M308.4,335c5.9,5.7,15.6,13.9,14.8,28.6c-0.3,4.6-6.7,16.5-16.7,14.1c-1.6-0.4-3.8-1.7-4.9-2.8c-10.9-10.2-12.1-13.8-15-19.5
	c-1.1-2.1-2.8-4.1-3.4-6.4c-4-14.4-16.5-48.5-14.8-50.1C270.4,296.8,294.4,321.6,308.4,335z M328.5,411.6c1.3,8.9,4.7,29.3-4.2,31
	c-10.9,2.1-35.4,3.8-59.4-11.6c-12.5-8-10.8-12.6-3.2-15.1c1.4-0.5,3-1.1,4.2-1.9c4.5-3,7.6-4.9,11-9.8c5.3-7.5,6.3-17.6,10.6-18.9
	c4.4-1.4,13.7,6.2,29.6,13.8C323,401.7,327.3,403.1,328.5,411.6z"/>
<path id="path1_00000008146803400457018790000005709180981515828406_" class="st3" d="M383.2,88.2c-1.1,14.9-20.9,37.7-24.1,37.7
	c-3.7,0-11.6-18.2-23-31.7c-12.4-14.8-27.6-24.1-28.5-27.1c-0.4-6.2,11.5-48.8,19.8-49.7C332.6,16.8,385.1,61.7,383.2,88.2z
	 M87.9,106.2c-17.7,9.7-35.7,33-42.7,45.7c-0.6,1.2-2.1,1.5-3.2,0.8c-7.5-5-11.5-16.5-13.8-22.7c-0.4-1-0.5-2.1-0.3-3.2
	c1.8-10.9,18.1-44.3,36.4-51.7c1.5-0.6,3.1-0.3,4.3,0.6c5.7,4.5,16,18,20.2,27.5C89.3,104.4,88.9,105.6,87.9,106.2z M403.9,114.2
	c13.5,7.4,15.8,75.1-0.4,97.6c-8.5,11.9-32.1,14.7-33.7,13c-1.5-1.6,5.7-17.9,5.9-36.3c0.2-20.4-10-35.6-9.5-40.8
	C366.7,142.1,396.6,110.1,403.9,114.2z M213,190.6c13.8,1.3,16.8,3.7,18,5.1c3.3,3.5,3.9,7.9,4,9.4c0,0.4,0.9,8.4-4.4,14.4
	c-2.3,2.6-5.2,3.4-16.3,6.3c-11.9,3.1-22,3.9-29.1,4.1c-10.3,0.2-15.5,0-20.4-3.2c-5.8-3.8-12.1-11.6-10.5-18.9
	c1.5-6.5,8.1-10.7,18.5-13.6C190.1,189.3,202.3,189.6,213,190.6z M44.6,240.5c0.2,0.9-0.1,2.2-0.7,3c-5.1,6-19.1,8.5-23.5,6.4
	c-0.9-0.4-1.5-1.6-1.4-2.6c1.8-15.5-0.6-25.3-2.2-37c-0.2-1.1,0.1-2.3,0.7-3.3c2.6-4.2,13.5-8.4,18.7-9.6c1.1-0.3,2.1,0.5,2.1,1.6
	C39.2,213.1,41,227.1,44.6,240.5z M394.9,260.9c0.8,0.9,0.6,2.2,0.3,3.1c-5.4,17.7-49,49.4-62.8,52.5c-1.4,0.3-2.7,0.7-4-0.1
	c-4.2-2.5-9.6-7.5-11.4-11.1c-0.5-0.9-0.5-2.1,0-3c3.5-6.9,20.4-20.3,26-27.1c8.2-9.9,16.2-21.5,23.6-26.8c0.9-0.6,2-0.8,3.1-0.5
	C377.8,250.1,390.6,256.1,394.9,260.9z M101.3,302c-1.9,5.5-4.3,10.2-6.4,12.6c-0.7,0.7-1.6,1.2-2.6,1.2
	c-15.1,0.6-41.7-28.5-45.3-37.5c-0.4-1.1-0.5-2.2-0.3-3.3c1.4-6.6,12.7-16.2,16.5-18.6c0.9-0.6,2-0.3,2.6,0.6
	c4.5,7.4,22.2,31.5,34.9,42.7C101.3,300.2,101.5,301.1,101.3,302z M116.7,390.8c-1.5-4.1,1.3-11.6-0.1-18.2c-1.4-6.5-2-13-1.9-19.4
	c0-4.4,0.4-8.7,0.9-12.9c0.6-4.3,1.4-8.5,2.4-12.6c1-4.1,2.2-8.1,3.5-12c1.1-3.2,2.3-6.3,3.6-9.3c1.1-2.5,2.2-4.9,3.3-7.3
	c1.1-2.4,2.3-4.6,3.5-6.8c1.1-2.1,2.3-4.1,3.4-6c1.1-1.9,2.3-3.7,3.4-5.4c1.4-2.2,2.9-4.2,4.2-6s2.7-3.5,4-4.9
	c3.9-4.5,7.1-7.1,8.7-7.1c0,0-1,3.5-2.5,8.6c-6.5,21.5-15.9,39.5-18.5,49.3c-2.6,9.8-4.5,20.7-5,31.1c-0.4,8.9,0.3,16.9,1.1,20.3
	c7.3,33,18.7,43.3,18.7,43.3c-6.8,0-15.2-5-18.8-8.2l-11.5-6.7l-1.8-11 M282.8,345.8c-2.9-7.9-15.9-45.3-15.2-47.2
	c0.8-1.9,9.9,6,17,13.3c0,0-1.8,5.1-2.2,11.6C282,332.9,282.8,345.8,282.8,345.8z M246.9,336.6c1.4,6.5-2,11.9-6.4,19.1
	c-4.6,7.5-7.1,11.4-11.7,12.4c-3.1,0.7-6.2,0-9.5-1.8c-3.6-1.9-7.3-4.9-11.4-8.3c-2.6-2.1-5.2-4.8-7.9-8c-3.2-3.7-3.6-4.9-3.8-5.8
	c-0.7-3.2,1-6.4,3.6-9.9c5.1-6.7,12-12,17.6-15.6c2.5-1.6,5.7-2,8.5-1c3.4,1.2,7.5,3.2,11.6,6.5C241.4,327.6,245.6,331,246.9,336.6z
	 M259.9,310.6c0.9,1.8,3.6,8.2,5.7,14.3c1.1,3,2.3,7.1,3.1,10.2c4.6,15,8.9,25,3.8,51.8c-1,4.3-3.1,9-3.1,9
	c-4.4,8.9-9.2,12.1-19.9,14.1c-6.7,1.2-25.2-4.2-27.6-5.2c0,0,13.8-15.4,26-42.8c4.4-9.9,7-18.3,5.2-24.8
	c-2.8-16.5-8.6-22.7-8.6-22.7c-1.9-5-2.2-6.7-4-11.3c-0.6-1.4-3.6-6.1-3.6-6.1c1.2,0.1,1.5,0,3-0.5c1.6-0.6,2.3-1.1,3.4-1.5
	c2.2-0.8,4.2-1.3,6.5-0.3C252.8,295.8,254.3,298.7,259.9,310.6z M100.9,336.9c-1.6,10.5-1.5,22.3-1.4,25.5c0,0.6-0.1,1.3-0.3,1.9
	c-1.7,4.1-7.3,10-24.1,9.9c-6.9,0-8.2-4.6-7.8-8.5c0.2-2.5,0.9-5,2-7.3c3-6.8,8.8-16.3,16.9-22.4l0,0c3.2-2,7.1-3.1,13.1-1.5
	C100.4,334.7,101.1,335.8,100.9,336.9z M314.8,203.5c0,24.5-8.1,45.6-20.3,60.1c-4,4.7-7.4,8-11.6,11c-13.5,9.6-37.1,11.3-37.1,11.3
	s45-29.1,44-74c-0.1-6.9-2.5-23.8-9.3-38.1c-15.1-31.3-27.7-48.9-42.7-66.8c0.2,0,23.8,1.7,36.2,8.9
	C304.9,134.1,314.8,185.2,314.8,203.5z"/>
<path class="st0" d="M410.1,219.2c7.9-7.9,14.1-20.8,14.3-61.3c0-1.6-0.1-3.3-0.2-4.9c-0.5-6.8-2.8-23.6-6-34.6
	c-1.9-6.5-5.5-13.2-11.9-15.7c-6.4-2.5-10.2,0.6-16.8,6.9c-4,3.8-5.3,4.1-5.3,4.1s8.6-14.8,8.8-23c0.6-29.5-34.4-66.4-62.5-83.9
	C325,3.3,319.1,8,318,11.5c-20.3,42-37.8,97.2-37.8,97.2s-11.9-6.5-18.4-8c-13.3-3-20.7-3.6-35.6-3.6c-39,0-64.2,8.8-75.9,13.5
	c-11.7,4.7-34.8,17.3-34.8,17.3s-25.8-51-42-60.9c-1.5-0.9-3.3-1.5-5.1-1.6C45,63.5,23.1,104,19.1,125.4c-0.4,2.4-0.4,4.9,0.2,7.2
	c7.1,19.9,9.2,21.9,35.2,48.2c-11.3,3.3-26,8.3-36.1,13.7c-2.2,1.1-4.4,3.1-6.2,4.7c-7,6.3-1.1,20.1,0.1,32.3
	c1.2,12.9-2.2,17.2,0.8,22.6c3,5.4,18,6.7,32.4,1.9c-13,11.5-9.3,27.9-7.3,30.8c1.9,2.9,17,28.9,43.8,40.4c-19.9,15-22.1,34-22.1,34
	c-1.3,9.1-0.8,13.3,2.8,18.5c0.8,1.2,1.9,2.1,3.1,2.7c8.8,4.4,22.2,5.5,36.9-1.6c2.2,41.3,31.8,54.4,59.7,52.7
	c1.9-0.1,3.8-0.4,5.6-0.9c15-3.9,42.5-17.2,66.3-7.4c1.4,0.6,2.6,1.4,3.7,2.5c16.7,16.6,37.7,27.8,38.4,28.1
	c1,0.6,24.8,9.9,57.3,3.4c6.6-1.3,12.8-4,18.3-7.8c15-10.3,43.6-34.4,30.6-68.2c-0.9-2.4-3.2-4-5.7-3.9c-9.4,0.1-29.6,7.3-50.1,3.3
	c21.6-18.5-1.9-50.7-1.9-50.7c65.7-30,80.5-64.3,80.9-64.8c3.6-5.4,0.2-12.1-3.5-15.5c-10.3-9.5-28.7-13.9-28.7-13.9
	s21.9-7.2,29-12.4C405,223.4,407.9,221.4,410.1,219.2z M327.4,17.4c2.5-0.3,15.6,9.7,28.5,23.1c8.3,8.7,16.6,18.8,21.8,28.4
	c3.7,6.9,5.9,13.5,5.5,19.3c-1.1,14.9-20.9,37.7-24.1,37.7c-3.7,0-11.6-18.2-23-31.7c-10.9-13-23.8-22.2-27.5-25.9
	c-0.7-0.7-1-1.6-0.9-2.6C308.6,56.2,319.6,18.3,327.4,17.4z M267.6,298.6c0.8-1.9,9.9,6,17,13.3l0,0c7.8,7.5,17,16.7,23.8,23.1
	c5.9,5.7,15.6,13.9,14.8,28.6c-0.3,4.6-6.7,16.5-16.7,14.1c-1.6-0.4-3.8-1.6-5-2.8c-10.5-10.2-10.8-11.7-13.7-17.4
	c-1.1-2.1-2.3-4.9-3.9-8.6c-0.4-0.9-1-2.6-1.3-3.6C281.3,342,266.9,300.5,267.6,298.6z M311.3,294.9c-0.6,0.3-1.4,0.4-2.1,0.2
	c-7.8-2.5-16.7-8.6-18.2-15.9c-0.2-0.8,0.1-1.7,0.7-2.3c9.4-8.9,18.9-20,27.5-37.4c0.3-0.7,1-1.2,1.8-1.3c7.5-1.4,32.2,0.4,34.3,6.9
	C357.1,250.9,322.3,289.7,311.3,294.9z M322.6,225.8c-0.9-0.5-1.3-1.5-1.2-2.5c1.5-10.4,1.9-23.3-0.8-40.4c-0.2-0.8,0.1-1.6,0.7-2.2
	c9.2-8.4,34.7-30.1,37.4-25.4c15.1,25.9,8.7,50.4,5,65.4C362.5,229.4,333.9,232.2,322.6,225.8z M288.3,113.2
	c3.6-12.9,7.1-29.8,14.9-34.6c1.5-0.9,3.1-0.3,3.9-0.2c14.4,1.7,42.9,42.5,42.9,53.1c0,7.3-22.3,26.4-32.7,30.7
	c-1.4,0.6-3-0.2-3.3-1.7c-4.1-17.8-14.5-30.4-25.3-45.1C288.2,114.8,288.1,114,288.3,113.2z M42,152.7c-7.5-5-11.5-16.5-13.8-22.7
	c-0.4-1-0.5-2.1-0.3-3.2c1.8-10.9,18.1-44.3,36.4-51.7c1.5-0.6,3.1-0.3,4.3,0.6c5.7,4.5,16,18,20.2,27.5c0.5,1.2,0.1,2.4-0.9,3
	c-17.7,9.7-35.7,33-42.7,45.7C44.6,153.1,43.1,153.4,42,152.7z M52.4,162.9c-1-1.6-1-3.6-0.3-5.3C60,139,79.7,118,91.5,113.1
	c0.8-0.4,1.8-0.3,2.6,0.2c4.1,2.4,7.7,8,13.5,18.5c0.5,1.1,0.1,2.8-0.8,3.6c-11.9,10.8-21.6,27.8-25.9,45.5
	c-0.4,1.5-2.2,2.2-3.6,1.4C63.6,174.1,55.2,167.8,52.4,162.9z M43.9,243.5c-5.1,6-19.1,8.5-23.5,6.4c-0.9-0.4-1.5-1.6-1.4-2.6
	c1.8-15.5-0.6-25.3-2.2-37c-0.2-1.1,0.1-2.3,0.7-3.3c2.6-4.2,13.5-8.4,18.7-9.6c1.1-0.3,2.1,0.5,2.1,1.6c0.9,14.1,2.7,28.1,6.3,41.5
	C44.8,241.4,44.5,242.7,43.9,243.5z M45.3,198.2c-0.2-1.8,0.9-3.5,2.6-4.2c5.5-2.2,18.1-4.1,28.6-3.6c2.1,0.1,3.7,1.8,3.7,3.7
	c0.1,7.3,1.6,19,5.1,27.4c0.8,1.9,0.2,4.2-1.5,5.3c-11.4,7.6-20.7,11.6-26.7,11.9c-1.8,0.1-3.5-1-4.2-2.7
	C49.9,228.7,46,205.8,45.3,198.2z M100.9,336.9c-1.6,10.5-1.5,22.3-1.4,25.5c0,0.6-0.1,1.3-0.3,1.9c-1.7,4.1-7.3,10-24.1,9.9
	c-6.9,0-8.2-4.6-7.8-8.5c0.2-2.5,0.9-5,2-7.3c3-6.8,8.8-16.3,16.9-22.4c3.2-2,7.1-3.1,13.1-1.5C100.4,334.7,101.1,335.8,100.9,336.9
	z M101.3,302c-1.9,5.5-4.3,10.2-6.4,12.6c-0.7,0.7-1.6,1.2-2.6,1.2c-15.1,0.6-41.7-28.5-45.3-37.5c-0.4-1.1-0.5-2.2-0.3-3.3
	c1.4-6.6,12.7-16.2,16.5-18.6c0.9-0.6,2-0.3,2.6,0.6c4.5,7.4,22.2,31.5,34.9,42.7C101.3,300.2,101.5,301.1,101.3,302z M104.6,291.6
	c-9.6-5.9-27.8-29.4-31-38.3c-0.5-1.4-0.2-3.1,0.8-4.4c3.6-4.2,13.5-13,19.4-13.4c0.8-0.1,1.6,0.3,2.1,1
	c3.7,5.1,19.2,20.8,26.1,27.6c0.6,0.6,0.9,1.5,0.6,2.4c-3.4,11.5-7.4,19.9-11.7,24.3C109.3,292.5,106.6,292.8,104.6,291.6z
	 M221.9,404.7C221.9,404.7,221.9,404.7,221.9,404.7c-4.5-0.8-9.7-1.3-16.4-1.1c-44.4,7.1-41.2,15.4-58.1,11.5
	c0,0-11.7-1.4-18.4-10.5c-3.1-4.2-6-10.3-7.8-15.3c-1.5-4.1-3.2-10.2-4.6-16.8c-1.4-6.5-2-13-1.9-19.4c0-4.4,0.4-8.7,0.9-12.9
	c0.6-4.3,1.4-8.5,2.4-12.6c1-4.1,2.2-8.1,3.5-12c1.1-3.2,2.3-6.3,3.6-9.3c1.1-2.5,2.2-4.9,3.3-7.3c1.1-2.4,2.3-4.6,3.5-6.8
	c1.1-2.1,2.3-4.1,3.4-6c1.1-1.9,2.3-3.7,3.4-5.4c1.4-2.2,2.9-4.2,4.2-6c1.4-1.8,2.7-3.5,4-4.9c3.9-4.5,7.1-7.1,8.7-7.1l0,0
	c1.8-0.3,4.6,0.7,10.3,3.3c4.3,1.9,8.5,3.4,10,11.1c0.5,2.7,0.3,5.4-0.4,8c-2.7,9.3-4.9,16.8-6.2,22.3c-2,8.1-2.1,11.9,0.8,11.4
	c3.9-0.7,9.9-7.8,13.7-22.3c1.4-5.3,2.5-11.7,3.1-19c0.2-1.9,0.1-3.8-0.3-5.7c-0.9-4.7,0.5-6.7,8.4-10.8c0,0,5.4-4.5,14.1-3.3
	c13.7,2.8,24.1,3,31.7,1.9c13-1.9,18.1-7.6,18.2-10.3c0.2-4.9-6.7-6.7-13.8-3.8c-0.2,0.1-1.1,0.3-1.4,0.4
	c-21.8,3.5-26.6-1.9-31.7-3.8c-2.4-0.9-3.8-1.1-4.8-1.1c-2.5-0.1-4.5,0.3-8.2,1.8c-2.2,0.9-5,2.3-8.8,4.1c-6.4,3.2-9.4,4.7-11.8,5.3
	c-1.9,0.5-3.5,0.5-6.2,0.4c-5.7-0.2-9.2-1.5-14.3-5.5c-9.4-7.2-14.9-6.8-16.3,1.4c-1,5.9-4.3,9.9-7.6,10.4c-0.6,0.1-1.3,0-1.9-0.3
	c-7.7-3.3-15.4-10.5-21.6-17.7c-4.4-5-8-9.9-10.5-13.4c-2.2-3.2-4.2-6.6-5.9-10.1c-2.6-5.6-4.9-12.7-5.3-25.5
	c-0.1-5.1-0.1-11.6,3.8-21.7c4.2-11,8.8-15.8,14.1-21.8c13.6-15.4,34.2-22.6,54.1-30.1c26.8-10.1,55.6-13.5,76.6-11.3
	c0,0,0.1,0,0.1,0c0,0,0,0,0,0c0.2,0,22.3,3.6,34.7,10.8c30.9,18.2,40.8,67.5,40.8,85.8c0,24.5-8.3,45.5-20.2,59.8
	c-3.3,3.9-6.5,7.4-10.7,10.3c-12.1,8.5-27.9,10.4-31.8,11.1c-2.2,0.4-3.8,0.7-5.2,1.3c-2.9,1.3-6.4,2.9-7.6,3.5
	c-3.6,1.6-4.6,4.2-2.5,6.4c0.6,0.6,1.1,0.9,1.7,1c1.2,0.1,1.4,0,3-0.5c1.6-0.6,2.3-1.1,3.4-1.5c0.8-0.3,1.6-0.5,2.4-0.7
	c0,0,0.1,0,0.1,0c0.3,0,0.5-0.1,0.8-0.1c0.2,0,0.4,0,0.6,0c0,0,0,0,0.1,0c0.9,0,1.7,0.2,2.4,0.5c0,0,0,0,0,0c0,0,0,0,0,0
	c0.1,0.1,0.2,0.1,0.4,0.2c2.2,1,3.6,3.3,7,10.1c0.9,1.8,1.8,3.6,2.6,5.4c0,0.1,0.1,0.2,0.1,0.3c0.9,1.8,3.6,8.2,5.7,14.3
	c1,2.7,2.1,6.4,2.9,9.4c0.1,0.4,0.2,0.8,0.4,1.3c4.3,13.8,8.2,23.6,4.5,46.7c-0.1,0.8-0.2,1.5-0.4,2.2c-0.1,0.8-0.3,1.6-0.4,2.4
	c-1,4.3-3.1,9-3.1,9c-4.4,8.9-9.2,12.1-19.9,14.1C242.8,411.1,224.4,405.8,221.9,404.7z M336,402c14.5-0.8,22.2-4.9,25.6-5.9
	c5.7-1.7,10,1.6,8.4,6.5c-7.6,30.7-44.9,39.8-45.8,39.9c-11,1.7-35.1,3.3-59.3-11.6c-7.7-4.7-7.5-10.5,0.2-13c1.5-0.5,3-1.1,4.3-2
	c4.4-2.9,7.3-4.9,10.7-9.7c5.3-7.5,4.7-16,9-17.3c4.4-1.4,12.2,2.4,28.1,10c0.5,0.2,0.9,0.4,1.4,0.7
	C323.1,401.5,327.6,402.3,336,402z M394.9,260.9c0.8,0.9,0.6,2.2,0.3,3.1c-5.4,17.7-49,49.4-62.8,52.5c-1.4,0.3-2.7,0.7-4-0.1
	c-4.2-2.5-9.6-7.5-11.4-11.1c-0.5-0.9-0.5-2.1,0-3c3.5-6.9,20.4-20.3,26-27.1c8.2-9.9,16.2-21.5,23.6-26.8c0.9-0.6,2-0.8,3.1-0.5
	C377.8,250.1,390.6,256.1,394.9,260.9z M369.8,224.8c-1.5-1.6,5.7-17.9,5.9-36.3c0.2-20.4-10-35.6-9.5-40.8
	c0.5-5.6,30.4-37.6,37.7-33.5c13.5,7.4,15.8,75.1-0.4,97.6C395,223.7,371.4,226.5,369.8,224.8z"/>
<path id="path2_copy_00000010310140303852504200000009879430119727033008_" class="st0" d="M234.6,305.1c1.3,0.3,2.5,0.8,3.7,1.4
	c6.3,3.5,12.7,10.6,16.7,18.6c0.8,1.8,1.7,4,2.3,6.7c0.6,2.8,0.9,5.3,0.9,7.3c0.2,4.1-0.2,10.1-3.6,15.7c-2.2,3.6-5.2,5.9-8.7,8.8
	c-10.9,9.3-14.6,12.1-22.7,23.1c-0.3,0.4-0.6,0.9-0.9,1.3c-4.4,7-10.1,6.2-10.6-1.9c-0.3-5.1,3.4-14.2,7.5-19.4
	c0.8-1,4.2-4.1,6.4-5.7c2-1.5,4.4-3.2,6.5-4.9c4.1-3.2,14-9.6,12.4-17.8c-0.4-2.2-1.7-5.3-3.7-8.3c-1.7-2.6-3.9-5.1-6.6-7
	c-3.1-2.2-6.7-3.6-10.9-3.2c-4.2,0.4-9,2.6-14,7.7c-1.6,1.6-3.3,3.5-5,5.8c-2.6,3.4-6,9.2-6.8,10.9c-5.3,11.8-15.1,14.7-14.7,5
	c0.1-2.2,0.7-4.4,1.8-6.4c3.1-6,10.2-17.9,11.4-20.3C205.8,304.7,224.4,302.8,234.6,305.1z"/>
<path id="noseblot1_00000073688610717453897820000015481358766998312856_" class="st0" d="M164.4,209.8c-4.8,9.8,1.4,14.4,9.1,6.9
	c4.7-4.6,5.1-9.1,1.1-12.1C170.8,201.7,167.6,203.3,164.4,209.8z"/>
<path id="noseblot2_00000062907616480902439220000011799051076169265552_" class="st0" d="M186.6,208.9c-2.7,5.7-1.4,10.6,3.1,11
	c6.5,0.7,11.3-14,5.4-16.8C191.6,201.5,189.5,202.9,186.6,208.9z"/>
<path id="noseblot3_00000137821589514598789860000014016709793669262252_" class="st0" d="M205.7,216.7c0.8,1.5,2.9,2.8,4.6,2.8
	c5.6,0,12.1-12.8,8.4-16.4C213.2,197.6,201.8,209.5,205.7,216.7z"/>
<path id="noseblot4_00000010273308051426869960000015090002044019854736_" class="st0" d="M232.2,204.4c-3,1.6-5.2,8-5.2,12.1
	c0,1.8,0.8,3.3,2.7,3.5c2.8,0.4,3.9,0,6.6-3.3c2.4-3,5.4-8.8,3-12.3C238.1,202.7,234.3,203.1,232.2,204.4z"/>
<path id="righteye_00000160912439807434912640000018269246350403746455_" class="st0" d="M267.8,201.3c-1.5,0.5-5.7,2.7-6.6,6.7
	c-1.2,5.7,2.6,9.9,8,11.8c2.5,1,7.2,1.8,9.1,1.4c2.5-0.6,6.3-1.5,8.3-5c2.2-3.7-1.3-12-6.6-14.1
	C275.3,200.3,270.8,200.3,267.8,201.3z"/>
<path id="lefteye_00000127040775132411109210000006932961743732444826_" class="st0" d="M112.8,208c-4.7,8.6,4.2,18,13.1,13.7
	c2.5-1.2,6.6-4.2,10.1-10.9c2.5-4.9-0.9-11.2-5.3-12.4C125.6,197,116,202.1,112.8,208z"/>
</svg>
